<?xml version="1.0" encoding="utf-8"?>
<!-- Generator: Adobe Illustrator 24.1.3, SVG Export Plug-In . SVG Version: 6.00 Build 0)  -->
<svg version="1.1" id="Capa_1" xmlns="http://www.w3.org/2000/svg" xmlns:xlink="http://www.w3.org/1999/xlink" x="0px" y="0px"
	 viewBox="0 0 500 500" style="enable-background:new 0 0 500 500;" xml:space="preserve">
<style type="text/css">
	.st0{fill:#F1F4F6;}
</style>
<path class="st0" d="M220.2,222.7c21.6-1.6,43.3,4.2,61.2,16.4c267,181-24.4,287.1-61.8,138.6c-1.6-6.3-10.6-8.7-15.1-4.1
	C97.8,483.6-101.6,245.9,220.2,222.7z M118.6,107.1c21.7,5.8,31.8,38.7,22.5,73.4c-9.3,34.7-34.4,58.2-56.2,52.4
	c-21.7-5.8-31.8-38.7-22.5-73.4C71.7,124.7,96.9,101.3,118.6,107.1z M429.1,190.3c21.7,5.8,31.8,38.7,22.5,73.4
	c-9.3,34.7-34.4,58.2-56.2,52.4c-21.7-5.8-31.8-38.7-22.5-73.4C382.3,207.9,407.4,184.5,429.1,190.3z M238.4,52.9
	c23.9,6.4,35,42.4,24.8,80.4c-10.2,38-37.8,63.6-61.7,57.2c-23.8-6.5-34.9-42.5-24.7-80.4C187,72.1,214.6,46.5,238.4,52.9z
	 M352.4,83.4c23.9,6.4,35,42.4,24.8,80.4s-37.8,63.6-61.7,57.2s-35-42.4-24.8-80.4S328.6,77,352.4,83.4z"/>
</svg>
