<?xml version="1.0" encoding="utf-8"?>
<!-- Generator: Adobe Illustrator 24.1.3, SVG Export Plug-In . SVG Version: 6.00 Build 0)  -->
<svg version="1.1" id="Capa_1" xmlns="http://www.w3.org/2000/svg" xmlns:xlink="http://www.w3.org/1999/xlink" x="0px" y="0px"
	 viewBox="0 0 800 800" style="enable-background:new 0 0 800 800;" xml:space="preserve">
<style type="text/css">
	.st0{fill:#FFFFFF;}
</style>
<g>
	<g>
		<path class="st0" d="M272,364.7c63.9,0,115.9-69.7,115.9-155.5c0-85.8-52-155.5-115.9-155.5c-63.9,0-115.9,69.8-115.9,155.5
			C156.1,295,208.1,364.7,272,364.7z"/>
		<path class="st0" d="M615.7,516c-2.4-3.2-4.7-6.3-5.9-8.9c-25.9-55.5-96.9-120.8-212-122.5l-4.4,0c-113.3,0-183.8,61.9-212,119.9
			c-1,2-3.1,4.6-5.4,7.3c-2.7,3.2-5.3,6.5-7.6,10c-23.8,37.1-36,78.8-34.2,117.5c1.9,41.1,19.1,74.1,48.4,92.9
			c11.8,7.6,24.6,11.4,38,11.4c27.6,0,52.9-15.6,82.2-33.6c18.6-11.5,37.9-23.3,59.2-32.2c2.4-0.8,12.2-2,28.3-2
			c19.1,0,32.8,1.7,35.7,2.7c20.9,9.2,39.2,21.3,56.9,32.9c27.2,17.9,52.8,34.8,80.6,34.8c11.9,0,23.5-3.2,34.4-9.4
			c60.3-34.2,71.7-128.1,25.6-209.3C621.2,523.5,618.5,519.7,615.7,516z"/>
		<path class="st0" d="M518.4,364.7c63.9,0,115.9-69.7,115.9-155.5c0-85.8-52-155.5-115.9-155.5c-63.9,0-115.9,69.8-115.9,155.5
			C402.5,295,454.5,364.7,518.4,364.7z"/>
		<path class="st0" d="M708.7,284.9c-51.2,0-91.3,53.1-91.3,120.9c0,67.8,40.1,120.9,91.3,120.9c51.2,0,91.3-53.1,91.3-120.9
			C800,338,759.9,284.9,708.7,284.9z"/>
		<path class="st0" d="M182.6,405.8c0-67.8-40.1-120.9-91.3-120.9C40.1,284.9,0,338,0,405.8c0,67.8,40.1,120.9,91.3,120.9
			S182.6,473.6,182.6,405.8z"/>
	</g>
</g>
</svg>
