<svg xmlns="http://www.w3.org/2000/svg" viewBox="0 0 388.37 123.11"><defs><style>.cls-1{fill:#fff;}.cls-2,.cls-4,.cls-5,.cls-6,.cls-7{fill:none;}.cls-2,.cls-4,.cls-5,.cls-6{stroke:#000;}.cls-2,.cls-4,.cls-6{stroke-miterlimit:10;}.cls-2{stroke-width:3.11px;}.cls-3{fill:#489dba;}.cls-4,.cls-5{stroke-linecap:round;stroke-width:3.35px;}.cls-5,.cls-7{stroke-linejoin:round;}.cls-6{stroke-width:2.87px;}.cls-7{stroke:#73a9ad;stroke-width:2.39px;}.cls-8{fill:#fefefe;}.cls-9{fill:#fdfdfd;}.cls-10{fill:#fcfcfc;}.cls-11{font-size:55px;font-family:CherryBombOne-Regular, Cherry Bomb One;letter-spacing:0.35em;}.cls-12,.cls-13,.cls-14,.cls-15,.cls-16{fill:#2b2d2f;}.cls-12,.cls-13,.cls-14,.cls-15{font-size:68px;}.cls-12{letter-spacing:-0.01em;}.cls-13{letter-spacing:0em;}.cls-14{letter-spacing:-0.03em;}.cls-15{letter-spacing:-0.01em;}</style></defs><g id="Capa_4" data-name="Capa 4"><g id="Capa_2_copia_3" data-name="Capa 2 copia 3"><circle class="cls-1" cx="61.55" cy="61.55" r="60"/><circle class="cls-2" cx="61.55" cy="61.55" r="60"/></g><g id="Capa_2_copia" data-name="Capa 2 copia"><path class="cls-3" d="M123,83.53a4.21,4.21,0,0,0,.48-.12A60,60,0,0,1,4.07,77.92a22.81,22.81,0,0,0,.83,2.27c.21.5.41,1,.6,1.48a23.42,23.42,0,0,0,.31,2.89A6.78,6.78,0,0,0,8.5,89.12a9.76,9.76,0,0,0,3.9,1.35l.1,0a3,3,0,0,0,4,1,2.83,2.83,0,0,0,.94-.88l.35,0a17.47,17.47,0,0,0,2.24-.67,9.44,9.44,0,0,0,4.54-2.82,3.08,3.08,0,0,0,.07-4.15,64.61,64.61,0,0,0,.73-7.72,18.3,18.3,0,0,0-.68-6.9,3.32,3.32,0,0,0,1.79-2.74,14.59,14.59,0,0,0-.92-7.13c-.32-.88-.62-1.75-1-2.62a2.82,2.82,0,0,0,.57-.09A2.73,2.73,0,0,0,27,54.22a3.44,3.44,0,0,1,2.5-.47c.86.23,1.7.51,2.54.79l1.5.51a7.83,7.83,0,0,1,.92.34c1.16.72,1.91,2.18,2.85,3.27a30.54,30.54,0,0,0,3.56,3.45c.17.15.56.51.62.58a4.92,4.92,0,0,0,.24.45c0,.12.18.51.22.64.13.39.26.78.38,1.17a21.26,21.26,0,0,0,1,2.66c.28.59.81,1.28,1,1.81.22.71.21,1.52.42,2.25a6,6,0,0,0,5.93,4.51,38.86,38.86,0,0,0,4.44-.24,36.79,36.79,0,0,1,4.2-.06c.51.11,1,.23,1.55.33a23.94,23.94,0,0,0,4.63.33A2.75,2.75,0,0,0,68,75.12l.11-.09c1.5.18,3,.16,4.52.2a31.82,31.82,0,0,1,3.23.32l.25.22c1.32,1,3.86,1.34,4.7-.6a2,2,0,0,1,.11-.26A3.92,3.92,0,0,0,81.22,73a3,3,0,0,0,.31-2.57A3,3,0,0,0,82.4,69a9.41,9.41,0,0,0,.29-1.3,9,9,0,0,0,2.74-4.51h.45c2.66,0,3.48-2.82,2.46-4.59l.76-.5A12.41,12.41,0,0,1,92,56.64a26,26,0,0,1,7.34-1.32,3,3,0,0,0,1.38-.34,3.09,3.09,0,0,0,.71.34c.49.16,1,.28,1.49.44a2.72,2.72,0,0,0,1.33.05c0,.63-.11,1.26-.18,1.87-.31,3.14-.73,6.28-.9,9.42a36.72,36.72,0,0,0,1,9.91,22.76,22.76,0,0,1,.56,4.43c0,1.62-.42,3.34-.16,4.94.47,2.87,3.64,4.84,6.32,5.26a11.29,11.29,0,0,0,8.18-1.84,10,10,0,0,0,3.87-6.24v0Z" transform="translate(-2.45 -13.39)"/><path class="cls-3" d="M112.35,80.51a0,0,0,0,0,0,0h0Z" transform="translate(-2.45 -13.39)"/><path class="cls-3" d="M111.78,80.85" transform="translate(-2.45 -13.39)"/><path class="cls-3" d="M51.64,56.8a.6.6,0,0,0,.08.16A.21.21,0,0,1,51.64,56.8Z" transform="translate(-2.45 -13.39)"/></g><g id="Capa_12_copia" data-name="Capa 12 copia"><g id="Capa_2_copia_2" data-name="Capa 2 copia 2"><circle class="cls-2" cx="61.55" cy="61.55" r="60"/></g><g id="Capa_5_copia" data-name="Capa 5 copia"><path class="cls-4" d="M25.67,47.67c0,12.81,0,26,0,38.87a13.35,13.35,0,0,1-7.88,5A11.8,11.8,0,0,1,5.2,86.26" transform="translate(-2.45 -13.39)"/><path class="cls-5" d="M103.17,47.67c-.09,12.57-.09,25.48-.09,38.15a11.71,11.71,0,0,0,8.13,6,11.4,11.4,0,0,0,11.32-5" transform="translate(-2.45 -13.39)"/></g><g id="Capa_6_copia" data-name="Capa 6 copia"><path class="cls-4" d="M46.45,77.22" transform="translate(-2.45 -13.39)"/><path class="cls-6" d="M45.73,76.72a110.06,110.06,0,0,1,36.08.55" transform="translate(-2.45 -13.39)"/></g><g id="Capa_7_copia" data-name="Capa 7 copia"><path class="cls-4" d="M25.67,57.42a8.78,8.78,0,0,1,3.64-2.51c3-1.08,6,.07,8.25,2.12,3.9,3.57,6.15,9,8,13.85.65,1.73,1.25,3.48,1.77,5.26" transform="translate(-2.45 -13.39)"/><path class="cls-4" d="M102.2,57.25c-3.32-3.19-8.22-3.76-11.75-.49-2.34,2.17-4,5.24-5.38,8a89.25,89.25,0,0,0-4.78,11.58" transform="translate(-2.45 -13.39)"/></g><g id="Capa_8_copia" data-name="Capa 8 copia"><path class="cls-7" d="M64,50.35" transform="translate(-2.45 -13.39)"/><path d="M64.3,50.8h4.29c2,0,2.82,1.29,1.8,3.1a21.81,21.81,0,0,1-3.77,4.88A1.92,1.92,0,0,0,66,61a6.84,6.84,0,0,0,6.8,4.89,6.71,6.71,0,0,0,6.29-5.33,10.89,10.89,0,0,0,.21-1.41c.08-1,.64-1.64,1.61-1.59s1.54.82,1.48,1.88a9.61,9.61,0,0,1-4.36,7.87,9.7,9.7,0,0,1-13-1.81c-.74-.86-1-.79-1.68,0A9.86,9.86,0,0,1,46,60.06c-.14-1.16,0-2.28,1.31-2.46s1.65.92,1.82,2.06C49.78,64,53,66.42,57,65.8a6.9,6.9,0,0,0,5.5-5.28A1.48,1.48,0,0,0,62,59a31,31,0,0,1-3.4-4.17,4.58,4.58,0,0,1-.86-1.67c-.35-1.48.29-2.33,1.81-2.34S62.72,50.8,64.3,50.8Z" transform="translate(-2.45 -13.39)"/></g><g id="Capa_10_copia" data-name="Capa 10 copia"><path d="M45.45,46a4.91,4.91,0,1,1-4.82-5h.06A5,5,0,0,1,45.45,46Z" transform="translate(-2.45 -13.39)"/><path d="M92.86,45.86A4.86,4.86,0,1,1,88,41h0A4.85,4.85,0,0,1,92.86,45.86Z" transform="translate(-2.45 -13.39)"/></g></g><g id="gato_ojos" data-name="gato ojos"><path class="cls-8" d="M64.3,104.82h4.12c2.23,0,3,1.31,1.9,3.26a19.39,19.39,0,0,1-4,5.07c-1,.88-.94,1.57-.3,2.53a4.51,4.51,0,0,0,4.38,1.94,4.4,4.4,0,0,0,3.69-3.46c.18-.85,0-2.25,1.42-1.91,1.25.3.84,1.56.61,2.44a6.27,6.27,0,0,1-4.59,4.78A6.12,6.12,0,0,1,65,117.68c-.72-.78-.92-.69-1.59,0a6.17,6.17,0,0,1-6.83,1.67,6.33,6.33,0,0,1-4.37-5.17c-.16-.83-.28-1.89.88-2s1.1.88,1.23,1.68a4.41,4.41,0,0,0,3.89,3.8,4.54,4.54,0,0,0,4.52-2.55,1.14,1.14,0,0,0-.28-1.64,24.8,24.8,0,0,1-4-4.86,4.63,4.63,0,0,1-.67-1.42,1.69,1.69,0,0,1,1.8-2.37Z" transform="translate(-2.45 -13.39)"/><path class="cls-8" d="M45.45,97.63a5,5,0,0,1-4.88,4.87,5,5,0,0,1-4.93-5,4.9,4.9,0,0,1,9.8.1Z" transform="translate(-2.45 -13.39)"/><path class="cls-8" d="M92.86,97.59A4.86,4.86,0,1,1,88,92.72a4.86,4.86,0,0,1,4.85,4.87Z" transform="translate(-2.45 -13.39)"/><path class="cls-9" d="M46.29,108.65h.32c.8-.05,1.59,0,1.62,1s-.76,1-1.47,1a45.48,45.48,0,0,0-7.06.92,48.55,48.55,0,0,0-12.39,4.24c-.7.35-1.53.9-2-.14s.44-1.35,1.14-1.71A51.65,51.65,0,0,1,46.29,108.65Z" transform="translate(-2.45 -13.39)"/><path class="cls-9" d="M82.31,108.63a51.58,51.58,0,0,1,19.86,5.44c.68.34,1.43.73,1,1.65s-1.23.51-1.91.18a50,50,0,0,0-19.12-5.2c-.79,0-1.84.18-1.93-1.08C80.11,108.86,80.79,108.57,82.31,108.63Z" transform="translate(-2.45 -13.39)"/><path class="cls-10" d="M85.16,105.78c5.44.24,10.85.64,15.85,3.13l.71.36a1,1,0,0,1,.53,1.57c-.36.62-1,.57-1.52.24a24.92,24.92,0,0,0-7.62-2.51,51.23,51.23,0,0,0-10.42-.65c-.73,0-1.61.15-1.69-.92s.79-1.21,1.62-1.23S84.3,105.78,85.16,105.78Z" transform="translate(-2.45 -13.39)"/><path class="cls-10" d="M42.72,107.93c-5.21.11-10.32.67-15,3.16-.64.34-1.26.36-1.59-.39s.1-1.15.74-1.5a26.28,26.28,0,0,1,8.54-2.74,51.87,51.87,0,0,1,10.26-.68c.85,0,1.86,0,1.77,1.23s-1.08.91-1.84.92Z" transform="translate(-2.45 -13.39)"/><path class="cls-10" d="M47.24,111.49c.81-.06,1.27.19,1.36.81.12.83-.47,1.07-1.14,1.23a42.29,42.29,0,0,0-9.37,3.31,50.46,50.46,0,0,0-5.62,3.23c-.65.43-1.37,1.13-2,.18s.15-1.41.83-1.86a45.21,45.21,0,0,1,15.25-6.75Z" transform="translate(-2.45 -13.39)"/><path class="cls-10" d="M98.19,119.6a1,1,0,0,1-.47.94c-.54.33-1,.07-1.46-.24a44.25,44.25,0,0,0-6.3-3.64,41.16,41.16,0,0,0-8.63-3c-.73-.16-1.78-.24-1.48-1.39s1.21-.78,2-.61a46.07,46.07,0,0,1,15.54,6.89C97.75,118.77,98.17,119.05,98.19,119.6Z" transform="translate(-2.45 -13.39)"/></g></g><g id="Capa_2" data-name="Capa 2"><text class="cls-11" transform="translate(90.91 91.06)">	<tspan class="cls-12" x="36" y="0">Mo</tspan><tspan class="cls-13" x="127.8" y="0">ni</tspan><tspan class="cls-14" x="184.51" y="0">P</tspan><tspan class="cls-15" x="226.88" y="0">e</tspan><tspan class="cls-13" x="260.54" y="0">t</tspan></text></g><g id="Capa_3_copia" data-name="Capa 3 copia"><path class="cls-16" d="M263.52,54.39c1.92,0,3.48-2.09,3.48-4.67s-1.56-4.66-3.48-4.66-3.47,2.09-3.47,4.66S261.61,54.39,263.52,54.39Z" transform="translate(-2.45 -13.39)"/><path class="cls-16" d="M271.91,54.39c1.92,0,3.48-2.09,3.48-4.67s-1.56-4.66-3.48-4.66-3.47,2.09-3.47,4.66S270,54.39,271.91,54.39Z" transform="translate(-2.45 -13.39)"/><path class="cls-16" d="M277.62,53c-1.53,0-2.74,1.6-2.74,3.63s1.21,3.63,2.74,3.63,2.74-1.59,2.74-3.63S279.16,53,277.62,53Z" transform="translate(-2.45 -13.39)"/><path class="cls-16" d="M260.84,56.62c0-2-1.2-3.63-2.74-3.63s-2.74,1.6-2.74,3.63,1.21,3.63,2.74,3.63S260.84,58.66,260.84,56.62Z" transform="translate(-2.45 -13.39)"/></g></svg>