<?xml version="1.0" encoding="utf-8"?>
<!-- Generator: Adobe Illustrator 24.1.3, SVG Export Plug-In . SVG Version: 6.00 Build 0)  -->
<svg version="1.1" id="Capa_1" xmlns="http://www.w3.org/2000/svg" xmlns:xlink="http://www.w3.org/1999/xlink" x="0px" y="0px"
	 viewBox="0 0 388.4 123.1" style="enable-background:new 0 0 388.4 123.1;" xml:space="preserve">
<style type="text/css">
	.st0{fill:#FFFFFF;}
	.st1{fill:none;stroke:#000000;stroke-width:3.11;stroke-miterlimit:10;}
	.st2{fill:#489DBA;}
	.st3{fill:none;stroke:#000000;stroke-width:3.35;stroke-linecap:round;stroke-miterlimit:10;}
	.st4{fill:none;stroke:#000000;stroke-width:3.35;stroke-linecap:round;stroke-linejoin:round;}
	.st5{fill:none;stroke:#000000;stroke-width:2.87;stroke-miterlimit:10;}
	.st6{fill:none;stroke:#73A9AD;stroke-width:2.39;stroke-linejoin:round;}
	.st7{fill:#FEFEFE;}
	.st8{fill:#FDFDFD;}
	.st9{fill:#FCFCFC;}
	.st10{enable-background:new    ;}
	.st11{fill:#2B2D2F;}
</style>
<g id="Capa_4">
	<g id="Capa_2_copia_3">
		<circle class="st0" cx="61.5" cy="61.5" r="60"/>
		<circle class="st1" cx="61.5" cy="61.5" r="60"/>
	</g>
	<g id="Capa_2_copia">
		<path class="st2" d="M120.6,70.1c0.2,0,0.3-0.1,0.5-0.1c-4.4,32.8-34.6,55.9-67.5,51.5C24.7,117.6,2.8,93.6,1.6,64.5
			c0.2,0.8,0.5,1.5,0.8,2.3c0.2,0.5,0.4,1,0.6,1.5c0,1,0.1,1.9,0.3,2.9c0.2,1.8,1.2,3.5,2.7,4.6c1.2,0.7,2.5,1.2,3.9,1.3h0.1
			c0.9,1.3,2.6,1.8,4,1c0.4-0.2,0.7-0.5,0.9-0.9h0.4c0.8-0.2,1.5-0.4,2.2-0.7c1.8-0.5,3.3-1.5,4.5-2.8c1.1-1.2,1.1-3,0.1-4.2
			c0.4-2.6,0.6-5.1,0.7-7.7c0.2-2.3,0-4.7-0.7-6.9c1-0.5,1.7-1.6,1.8-2.7c0.3-2.4,0-4.9-0.9-7.1c-0.3-0.9-0.6-1.8-1-2.6
			c0.2,0,0.4,0,0.6-0.1c0.8-0.2,1.5-0.8,1.9-1.5c0.7-0.5,1.6-0.6,2.5-0.5c0.9,0.2,1.7,0.5,2.5,0.8l1.5,0.5c0.3,0.1,0.6,0.2,0.9,0.3
			c1.2,0.7,1.9,2.2,2.8,3.3c1.1,1.2,2.3,2.4,3.6,3.5c0.2,0.2,0.6,0.5,0.6,0.6c0.1,0.2,0.2,0.3,0.2,0.5c0,0.1,0.2,0.5,0.2,0.6
			c0.1,0.4,0.3,0.8,0.4,1.2c0.3,0.9,0.6,1.8,1,2.7c0.3,0.6,0.8,1.3,1,1.8c0.2,0.7,0.2,1.5,0.4,2.3c0.7,2.7,3.1,4.6,5.9,4.5
			c1.5,0,3-0.1,4.4-0.2c1.4-0.1,2.8-0.1,4.2-0.1c0.5,0.1,1,0.2,1.5,0.3c1.5,0.3,3.1,0.4,4.6,0.3c1,0,2-0.5,2.5-1.4l0.1-0.1
			c1.5,0.2,3,0.2,4.5,0.2c1.1,0.1,2.2,0.2,3.2,0.3l0.3,0.2c1.3,1,3.9,1.3,4.7-0.6c0-0.1,0.1-0.2,0.1-0.3c0.3-0.6,0.4-1.3,0.3-1.9
			c0.5-0.8,0.6-1.7,0.3-2.6c0.4-0.4,0.7-0.9,0.9-1.4c0.1-0.4,0.2-0.9,0.3-1.3c1.3-1.2,2.3-2.8,2.7-4.5h0.4c2.7,0,3.5-2.8,2.5-4.6
			l0.8-0.5c0.9-0.6,1.9-1.1,2.9-1.5c2.4-0.8,4.8-1.2,7.3-1.3c0.5,0,1-0.1,1.4-0.3c0.2,0.1,0.5,0.3,0.7,0.3c0.5,0.2,1,0.3,1.5,0.4
			c0.4,0.1,0.9,0.1,1.3,0c0,0.6-0.1,1.3-0.2,1.9c-0.3,3.1-0.7,6.3-0.9,9.4c-0.1,3.3,0.2,6.7,1,9.9c0.3,1.5,0.5,2.9,0.6,4.4
			c0,1.6-0.4,3.3-0.2,4.9c0.5,2.9,3.6,4.8,6.3,5.3c2.9,0.5,5.8-0.2,8.2-1.8C118.7,74.9,120,72.7,120.6,70.1L120.6,70.1L120.6,70.1z"
			/>
		<path class="st2" d="M109.9,67.1L109.9,67.1L109.9,67.1z"/>
		<path class="st2" d="M109.3,67.5"/>
		<path class="st2" d="M49.2,43.4c0,0.1,0,0.1,0.1,0.2C49.2,43.5,49.2,43.5,49.2,43.4z"/>
	</g>
	<g id="Capa_12_copia">
		<g id="Capa_2_copia_2">
			<circle class="st1" cx="61.5" cy="61.5" r="60"/>
		</g>
		<g id="Capa_5_copia">
			<path class="st3" d="M23.2,34.3c0,12.8,0,26,0,38.9c-1.9,2.6-4.7,4.3-7.9,5c-4.9,1.1-9.9-1-12.6-5.3"/>
			<path class="st4" d="M100.7,34.3c-0.1,12.6-0.1,25.5-0.1,38.2c1.7,3.1,4.7,5.3,8.1,6c4.4,0.7,8.9-1.3,11.3-5"/>
		</g>
		<g id="Capa_6_copia">
			<path class="st3" d="M44,63.8"/>
			<path class="st5" d="M43.3,63.3c12-1.8,24.2-1.6,36.1,0.6"/>
		</g>
		<g id="Capa_7_copia">
			<path class="st3" d="M23.2,44c1-1.1,2.2-2,3.6-2.5c3-1.1,6,0.1,8.2,2.1c3.9,3.6,6.2,9,8,13.8c0.7,1.7,1.3,3.5,1.8,5.3"/>
			<path class="st3" d="M99.8,43.9c-3.3-3.2-8.2-3.8-11.8-0.5c-2.3,2.2-4,5.2-5.4,8c-1.9,3.7-3.5,7.6-4.8,11.6"/>
		</g>
		<g id="Capa_8_copia">
			<path class="st6" d="M61.5,37"/>
			<path d="M61.9,37.4h4.3c2,0,2.8,1.3,1.8,3.1c-1,1.8-2.3,3.4-3.8,4.9c-0.7,0.5-0.9,1.4-0.6,2.2c0.9,3,3.7,5,6.8,4.9
				c3.1-0.1,5.7-2.3,6.3-5.3c0.1-0.5,0.2-0.9,0.2-1.4c0.1-1,0.6-1.6,1.6-1.6S80,45,79.9,46c-0.1,3.2-1.7,6.1-4.4,7.9
				c-4.1,2.9-9.8,2.1-13-1.8c-0.7-0.9-1-0.8-1.7,0c-3.5,4.2-9.7,4.7-13.9,1.2c-2-1.7-3.2-4-3.5-6.6c-0.1-1.2,0-2.3,1.3-2.5
				s1.7,0.9,1.8,2.1c0.6,4.3,3.9,6.8,7.9,6.1c2.7-0.5,4.9-2.6,5.5-5.3c0.1-0.6-0.1-1.2-0.5-1.5c-1.3-1.3-2.4-2.7-3.4-4.2
				c-0.4-0.5-0.7-1.1-0.9-1.7c-0.3-1.5,0.3-2.3,1.8-2.3S60.3,37.4,61.9,37.4z"/>
		</g>
		<g id="Capa_10_copia">
			<path d="M43,32.6c-0.1,2.7-2.3,4.9-5,4.8c-2.7-0.1-4.9-2.3-4.8-5c0.1-2.7,2.3-4.9,5-4.8h0.1C40.9,27.7,43,29.9,43,32.6z"/>
			<path d="M90.4,32.5c0,2.7-2.2,4.9-4.9,4.9s-4.9-2.2-4.9-4.9s2.2-4.9,4.9-4.9l0,0C88.2,27.6,90.4,29.8,90.4,32.5
				C90.4,32.5,90.4,32.5,90.4,32.5z"/>
		</g>
	</g>
	<g id="gato_ojos">
		<path class="st7" d="M61.9,91.4H66c2.2,0,3,1.3,1.9,3.3c-1,1.9-2.4,3.6-4,5.1c-1,0.9-0.9,1.6-0.3,2.5c1,1.4,2.7,2.2,4.4,1.9
			c1.8-0.3,3.3-1.6,3.7-3.5c0.2-0.8,0-2.3,1.4-1.9c1.3,0.3,0.8,1.6,0.6,2.4c-0.5,2.3-2.3,4.2-4.6,4.8c-2.3,0.8-4.9,0.1-6.5-1.8
			c-0.7-0.8-0.9-0.7-1.6,0c-1.7,1.9-4.4,2.6-6.8,1.7c-2.3-0.7-4-2.7-4.4-5.2c-0.2-0.8-0.3-1.9,0.9-2s1.1,0.9,1.2,1.7
			c0.3,2,1.9,3.6,3.9,3.8c1.9,0.2,3.7-0.8,4.5-2.6c0.4-0.5,0.3-1.2-0.2-1.6c0,0,0,0-0.1,0c-1.5-1.4-2.9-3.1-4-4.9
			c-0.3-0.4-0.5-0.9-0.7-1.4c-0.4-0.8,0-1.9,0.8-2.2c0.3-0.1,0.6-0.2,1-0.1H61.9z"/>
		<path class="st7" d="M43,84.2c-0.1,2.7-2.2,4.8-4.9,4.9c-2.7,0-4.9-2.3-4.9-5c0-2.7,2.2-4.9,5-4.8C40.8,79.3,43,81.5,43,84.2
			L43,84.2z"/>
		<path class="st7" d="M90.4,84.2c0,2.7-2.2,4.9-4.9,4.8c-2.7,0-4.9-2.2-4.8-4.9c0-2.7,2.2-4.8,4.9-4.9
			C88.2,79.3,90.4,81.5,90.4,84.2C90.4,84.2,90.4,84.2,90.4,84.2L90.4,84.2z"/>
		<path class="st8" d="M43.8,95.3h0.3c0.8-0.1,1.6,0,1.6,1s-0.8,1-1.5,1c-2.4,0.1-4.7,0.4-7.1,0.9c-4.3,0.8-8.5,2.3-12.4,4.2
			c-0.7,0.3-1.5,0.9-2-0.1s0.4-1.3,1.1-1.7C30.2,97.5,36.9,95.7,43.8,95.3z"/>
		<path class="st8" d="M79.9,95.2c6.9,0.5,13.7,2.3,19.9,5.4c0.7,0.3,1.4,0.7,1,1.7s-1.2,0.5-1.9,0.2c-6-3-12.5-4.8-19.1-5.2
			c-0.8,0-1.8,0.2-1.9-1.1C77.7,95.5,78.3,95.2,79.9,95.2z"/>
		<path class="st9" d="M82.7,92.4c5.4,0.2,10.8,0.6,15.8,3.1l0.7,0.4c0.5,0.1,0.8,0.7,0.7,1.2c0,0.1-0.1,0.2-0.2,0.3
			c-0.4,0.6-1,0.6-1.5,0.2c-2.4-1.2-5-2.1-7.6-2.5c-3.4-0.6-6.9-0.8-10.4-0.7c-0.7,0-1.6,0.2-1.7-0.9s0.8-1.2,1.6-1.2
			S81.9,92.4,82.7,92.4z"/>
		<path class="st9" d="M40.3,94.5c-5.2,0.1-10.3,0.7-15,3.2c-0.6,0.3-1.3,0.4-1.6-0.4s0.1-1.2,0.7-1.5c2.7-1.4,5.6-2.3,8.5-2.7
			c3.4-0.6,6.8-0.8,10.3-0.7c0.8,0,1.9,0,1.8,1.2s-1.1,0.9-1.8,0.9L40.3,94.5z"/>
		<path class="st9" d="M44.8,98.1c0.8-0.1,1.3,0.2,1.4,0.8c0.1,0.8-0.5,1.1-1.1,1.2c-3.2,0.7-6.4,1.8-9.4,3.3c-1.9,1-3.8,2-5.6,3.2
			c-0.6,0.4-1.4,1.1-2,0.2s0.1-1.4,0.8-1.9c4.6-3.2,9.8-5.5,15.2-6.8L44.8,98.1z"/>
		<path class="st9" d="M95.7,106.2c0,0.4-0.1,0.7-0.5,0.9c-0.5,0.3-1,0.1-1.5-0.2c-2-1.4-4.1-2.6-6.3-3.6c-2.8-1.3-5.7-2.3-8.6-3
			c-0.7-0.2-1.8-0.2-1.5-1.4s1.2-0.8,2-0.6c5.6,1.3,10.8,3.6,15.5,6.9C95.3,105.4,95.7,105.7,95.7,106.2z"/>
	</g>
</g>
<g id="Capa_2_1_">
	<g class="st10">
		<path class="st11" d="M154.9,91.1c-1.6,0-2.9-0.4-3.9-1.3s-1.7-1.9-2.1-3.2c-0.4-1.3-0.6-2.7-0.7-4.3c-0.1-1.6-0.1-3.2-0.1-4.8
			c0-1.6,0-3.1,0-4.5c0-1.4-0.2-2.4-0.4-3.3c-0.2-0.8-0.7-1.2-1.3-1.2c-0.9,0-1.5,0.4-1.9,1.1c-0.4,0.7-0.5,1.7-0.5,3
			c0,1.2,0.1,2.6,0.2,4c0.2,1.5,0.3,2.9,0.5,4.3c0.2,1.4,0.3,2.7,0.3,3.8c0,2.3-0.5,3.8-1.5,4.7s-2.4,1.3-4.2,1.3s-3.3-0.7-4.7-2.2
			c-1.3-1.5-2.4-3.4-3.3-5.7c-0.9-2.3-1.6-4.9-2-7.6c-0.5-2.7-0.7-5.3-0.7-7.8c0-3,0.3-5.9,1-8.7c0.7-2.8,1.7-5.3,3-7.5
			c1.3-2.2,3-4,5-5.3c2-1.3,4.4-2,7.1-2c2.1,0,3.9,0.5,5.3,1.4c1.4,0.9,2.5,2.1,3.4,3.5c0.8,1.4,1.4,2.8,1.7,4.3
			c0.3-1.5,0.9-2.9,1.7-4.3c0.8-1.4,1.9-2.6,3.3-3.5c1.4-0.9,3.2-1.4,5.2-1.4c3.4,0,6.4,1.1,8.8,3.2c2.4,2.1,4.3,5.1,5.5,8.8
			c1.3,3.7,1.9,8.1,1.9,13c0,2.3-0.2,4.8-0.7,7.3c-0.5,2.6-1.2,4.9-2.1,7.1c-0.9,2.2-2.1,4-3.4,5.4c-1.3,1.4-2.8,2.1-4.5,2.1
			c-1.8,0-3.2-0.5-4.3-1.4c-1-0.9-1.6-2.5-1.6-4.8c0-1.1,0.1-2.3,0.3-3.8c0.2-1.4,0.4-2.9,0.5-4.3c0.2-1.5,0.3-2.8,0.3-4
			c0-1.2-0.2-2.2-0.5-3c-0.3-0.7-1-1.1-1.9-1.1c-0.6,0-1.1,0.4-1.3,1.2c-0.2,0.8-0.4,1.9-0.5,3.2c-0.1,1.3-0.1,2.8-0.1,4.4
			c0,1.6,0,3.2-0.1,4.8c-0.1,1.6-0.3,3-0.6,4.3c-0.3,1.3-1,2.3-2,3.2C158,90.6,156.6,91.1,154.9,91.1z"/>
		<path class="st11" d="M199.9,91.1c-3.4,0-6.3-0.6-8.8-2.1s-4.5-3.4-5.9-5.8c-1.4-2.5-2.2-5.2-2.3-8.2c0-3.1,0.7-5.8,2.1-8.2
			c1.5-2.4,3.5-4.3,6.1-5.7c2.6-1.4,5.5-2.1,8.8-2.1c3.3,0,6.2,0.6,8.7,2c2.5,1.4,4.5,3.3,6,5.7c1.5,2.4,2.3,5.1,2.4,8.2
			c0,2.9-0.7,5.6-2.1,8.1c-1.5,2.4-3.5,4.4-6.1,5.8S203.3,91,199.9,91.1z M200.1,81.2c1.2,0,2.3-0.5,3.2-1.4c0.9-1,1.4-2.1,1.4-3.3
			c0-1.3-0.5-2.4-1.4-3.3c-0.9-0.9-2-1.4-3.2-1.4s-2.3,0.5-3.2,1.4c-0.9,0.9-1.4,2-1.4,3.3c0,1.3,0.5,2.4,1.4,3.3
			C197.9,80.7,198.9,81.2,200.1,81.2z"/>
	</g>
	<g class="st10">
		<path class="st11" d="M247.3,91.1c-1.8,0-3.1-0.5-3.8-1.5c-0.7-1-1.2-2.3-1.3-3.9c-0.1-1.6-0.2-3.1-0.2-4.7c0-2.4-0.3-4.3-1-5.8
			c-0.7-1.5-1.9-2.2-3.6-2.2c-1.5,0-2.7,0.7-3.4,2.2c-0.7,1.5-1.1,3.4-1.1,5.8c0,1.6-0.1,3.2-0.2,4.7c-0.1,1.5-0.5,2.8-1.3,3.8
			c-0.7,1-2,1.5-3.9,1.5c-1.4,0-2.6-0.5-3.5-1.6c-0.9-1-1.6-2.4-2.1-4.1c-0.5-1.7-0.9-3.5-1.1-5.4c-0.2-1.9-0.3-3.8-0.3-5.6
			c0-1.8,0.1-3.7,0.3-5.6c0.2-1.9,0.5-3.7,1-5.3c0.5-1.6,1.2-2.9,2.1-3.9c0.9-1,2.1-1.5,3.5-1.5c2.6,0,4.2,1.2,4.8,3.5
			c0.5-0.6,1.4-1.1,2.6-1.7c1.2-0.5,2.6-0.8,4.1-0.8c3.5,0,6.3,0.9,8.6,2.7c2.2,1.8,3.8,4.2,4.9,7.3c1,3.1,1.5,6.7,1.5,10.8
			c0,2.1-0.2,4-0.6,5.7c-0.4,1.7-1,3.1-2,4.1C250.3,90.5,248.9,91.1,247.3,91.1z"/>
		<path class="st11" d="M265.1,58.1c-2.2,0-4.1-0.8-5.6-2.4c-1.5-1.6-2.3-3.6-2.3-5.9c0-1.5,0.4-2.9,1.1-4.1c0.7-1.2,1.7-2.2,2.9-3
			c1.2-0.7,2.5-1.1,4-1.1c1.5,0,2.8,0.4,4,1.1s2.2,1.7,2.9,3c0.7,1.2,1.1,2.6,1.1,4.1c0,1.5-0.4,2.9-1.1,4.2c-0.7,1.2-1.7,2.2-2.9,3
			S266.5,58.1,265.1,58.1z M265.1,91.1c-1.8,0-3.2-0.5-4-1.6c-0.9-1-1.5-2.6-1.8-4.8c-0.3-2.2-0.5-4.9-0.5-8.3
			c0-3.4,0.1-6.2,0.4-8.4c0.3-2.2,0.9-3.8,1.8-4.8c0.9-1,2.3-1.5,4.1-1.5c1.8,0,3.2,0.5,4,1.5c0.9,1,1.5,2.6,1.8,4.8s0.5,5,0.5,8.4
			c0,3.4-0.1,6.2-0.4,8.3c-0.3,2.2-0.9,3.8-1.8,4.8C268.3,90.5,266.9,91.1,265.1,91.1z"/>
	</g>
	<g class="st10">
		<path class="st11" d="M286.7,91.1c-2,0-3.7-0.7-5-2c-1.3-1.3-2.2-3.1-2.9-5.4c-0.7-2.2-1.1-4.7-1.4-7.4c-0.2-2.7-0.3-5.3-0.3-8
			c0-3.1,0.4-6.1,1.3-9c0.8-2.9,2.1-5.6,3.9-8s4-4.3,6.6-5.7c2.7-1.4,5.8-2.1,9.5-2.1c3.7,0,7.1,0.8,10.1,2.3c3,1.5,5.4,3.7,7.2,6.6
			c1.8,2.9,2.7,6.3,2.7,10.2c0,3.5-0.5,6.6-1.6,9.1c-1.1,2.5-2.5,4.6-4.4,6.2c-1.8,1.6-3.9,2.8-6.1,3.6c-2.2,0.8-4.5,1.1-6.8,1.1
			c-2.3-0.1-4.5-0.5-6.5-1.3c0.2,1.1,0.4,2.2,0.4,3.3c0,1.1-0.2,2.2-0.5,3.2c-0.4,1-1.1,1.8-2,2.4C289.8,90.8,288.5,91.1,286.7,91.1
			z M299.1,72.1c1.6,0,3-0.6,4.3-1.8c1.2-1.2,1.8-2.6,1.8-4.2c0-1.6-0.6-3-1.8-4.2c-1.2-1.2-2.6-1.8-4.3-1.8s-3,0.6-4.3,1.8
			c-1.2,1.2-1.8,2.6-1.8,4.2c0,1.6,0.6,3,1.8,4.2C296,71.5,297.5,72.1,299.1,72.1z"/>
	</g>
	<g class="st10">
		<path class="st11" d="M336.6,91.1c-3.4,0-6.4-0.7-8.9-2c-2.6-1.3-4.6-3.2-6-5.5c-1.4-2.3-2.1-5-2.1-8.1c0-2.9,0.7-5.7,2.1-8.2
			c1.4-2.5,3.4-4.5,5.9-6c2.5-1.5,5.4-2.2,8.7-2.2c3,0,5.6,0.6,7.8,1.8c2.2,1.2,3.8,2.8,5,4.7c1.2,1.9,1.7,3.9,1.7,6
			s-0.5,3.8-1.4,5.1c-1,1.3-2.2,2.4-3.7,3.1c-1.5,0.7-3.1,1.2-4.9,1.4c-1.7,0.2-3.4,0.3-5,0.1c-1.6-0.2-2.9-0.4-4-0.8
			c0.8,1.3,1.8,2.2,3.1,2.7c1.2,0.5,2.6,0.7,3.9,0.6c1.4-0.1,2.6-0.2,3.8-0.4c1.4-0.3,2.6-0.2,3.5,0.2c0.9,0.5,1.4,1.2,1.4,2.2
			c0,0.8-0.2,1.6-0.8,2.4c-0.6,0.8-1.7,1.5-3.3,2.1C341.8,90.8,339.5,91.1,336.6,91.1z M332,72.2c0.5,0.7,1.1,1.2,2,1.5
			c0.9,0.3,1.7,0.4,2.6,0.3c0.9-0.1,1.6-0.3,2.2-0.7c0.6-0.4,0.9-1,0.9-1.7c0-0.8-0.3-1.5-0.9-2.1c-0.6-0.6-1.6-0.9-2.9-0.9
			c-1.3,0-2.2,0.4-2.9,1.2C332.3,70.5,332,71.3,332,72.2z"/>
	</g>
	<g class="st10">
		<path class="st11" d="M374.4,91.1c-1.6,0-3.2-0.3-4.8-1c-1.6-0.6-3.1-1.6-4.4-2.8c-1.3-1.2-2.2-2.7-2.8-4.4
			c-0.4-1.1-0.7-2.5-0.9-4.2c-0.2-1.7-0.3-3.5-0.4-5.4c-0.1-1.9-0.1-3.8-0.1-5.6c-1.8,0-3.5-0.2-5.1-0.5c-1.6-0.3-2.9-0.8-3.9-1.5
			s-1.5-1.8-1.5-3.3c0-1.8,0.5-3.1,1.4-4c1-0.9,2.2-1.5,3.8-1.8c1.6-0.3,3.4-0.5,5.3-0.5c0-1.4,0.2-2.8,0.4-4.3
			c0.2-1.5,0.6-2.8,1.1-4.1c0.5-1.3,1.2-2.3,2.1-3.1c0.9-0.8,2.1-1.2,3.5-1.2c1.9,0,3.4,0.6,4.3,1.8c0.9,1.2,1.4,2.8,1.7,4.8
			c0.2,1.9,0.3,4,0.3,6.1c2.4,0,4.4,0,6.3,0.3c1.8,0.2,3.2,0.7,4.3,1.5c1,0.8,1.6,2,1.6,3.7c0,1.7-0.6,3-1.8,3.9
			c-1.2,0.9-2.7,1.4-4.6,1.7c-1.9,0.3-3.9,0.5-6.1,0.5c0,0.9,0,1.8,0,2.7c0,0.9,0,1.9,0,2.8c0,2.6,0.2,4.4,0.5,5.5
			c0.3,0.8,0.6,1.3,1.1,1.6c0.5,0.2,1.1,0.4,1.8,0.4c0.7,0,1.6,0.2,2.7,0.4c1,0.2,1.9,0.8,2.4,1.7c0.6,0.9,0.9,2,0.9,3.4
			c0,1.5-0.8,2.7-2.4,3.6C379.3,90.6,377.1,91.1,374.4,91.1z"/>
	</g>
</g>
<g id="Capa_3_copia">
	<path class="st11" d="M261.1,41c1.9,0,3.5-2.1,3.5-4.7s-1.6-4.7-3.5-4.7s-3.5,2.1-3.5,4.7S259.2,41,261.1,41z"/>
	<path class="st11" d="M269.5,41c1.9,0,3.5-2.1,3.5-4.7s-1.6-4.7-3.5-4.7s-3.5,2.1-3.5,4.7S267.5,41,269.5,41z"/>
	<path class="st11" d="M275.2,39.6c-1.5,0-2.7,1.6-2.7,3.6s1.2,3.6,2.7,3.6s2.7-1.6,2.7-3.6S276.7,39.6,275.2,39.6z"/>
	<path class="st11" d="M258.4,43.2c0-2-1.2-3.6-2.7-3.6c-1.5,0-2.7,1.6-2.7,3.6s1.2,3.6,2.7,3.6C257.2,46.9,258.4,45.3,258.4,43.2z"
		/>
</g>
</svg>
