<svg xmlns="http://www.w3.org/2000/svg" viewBox="0 0 515 515"><defs><style>.cls-1{fill:#fff;}.cls-2,.cls-4,.cls-5,.cls-6,.cls-7,.cls-8{fill:none;}.cls-2,.cls-4,.cls-5,.cls-7{stroke:#c2c6c9;}.cls-2,.cls-4,.cls-6,.cls-7{stroke-miterlimit:10;}.cls-2{stroke-width:13px;}.cls-3{fill:#c2c6c9;}.cls-4,.cls-5,.cls-6{stroke-linecap:round;stroke-width:14px;}.cls-5,.cls-8{stroke-linejoin:round;}.cls-6{stroke:#000;}.cls-7{stroke-width:12px;}.cls-8{stroke:#73a9ad;stroke-width:10px;}.cls-9{fill:#fefefe;}.cls-10{fill:#fdfdfd;}.cls-11{fill:#fcfcfc;}</style></defs><g id="Capa_2_copia_3" data-name="Capa 2 copia 3"><circle class="cls-1" cx="257.5" cy="257.5" r="251"/><circle class="cls-2" cx="257.5" cy="257.5" r="251"/></g><g id="Capa_2_copia" data-name="Capa 2 copia"><path class="cls-3" d="M545.1,345.94a10.82,10.82,0,0,0,2-.49C530.07,467.53,425.26,561.5,298.5,561.5c-134.59,0-244.43-105.94-250.71-239A94.68,94.68,0,0,0,51.26,332c.89,2.09,1.74,4.05,2.5,6.18a100,100,0,0,0,1.31,12.07c1.28,7.51,4.83,14.7,11.27,19.08C71.1,372.52,77,374.12,82.66,375l.41.06c3.29,5.69,11.35,7.4,16.9,4.15a12,12,0,0,0,3.92-3.66c.48-.05,1-.12,1.46-.21a77.47,77.47,0,0,0,9.36-2.83c7.32-2.42,14-5.73,19-11.77,4.21-5.09,5.05-12.28.3-17.36,2.09-10.71,2.26-21.5,3.07-32.33a76.09,76.09,0,0,0-2.88-28.83c4.37-1.94,6.88-6.44,7.52-11.49,1.36-10.66-.28-19.78-3.88-29.83-1.31-3.66-2.57-7.32-4-10.95a10.94,10.94,0,0,0,2.37-.36,11.42,11.42,0,0,0,7.58-6.23c3.59-1.91,7.1-2.92,10.48-2,3.58,1,7.1,2.15,10.61,3.33,2.1.71,4.18,1.43,6.28,2.13a26.78,26.78,0,0,1,3.83,1.44c4.88,3,8,9.1,11.92,13.68a132.59,132.59,0,0,0,14.91,14.41c.72.62,2.33,2.15,2.59,2.43a19.88,19.88,0,0,0,1,1.87c.16.5.77,2.15.94,2.69.54,1.62,1.06,3.25,1.58,4.88a84.83,84.83,0,0,0,4.13,11.12c1.2,2.49,3.42,5.37,4.11,7.58.94,3,.87,6.35,1.75,9.42a27.75,27.75,0,0,0,6.18,11.23c4.83,5.21,11.78,7.15,18.64,7.63,6.16.44,12.44-.68,18.59-1a148.68,148.68,0,0,1,17.54-.24c2.16.46,4.32.95,6.49,1.38a96.69,96.69,0,0,0,19.37,1.36,11.4,11.4,0,0,0,10.42-5.94l.45-.36c6.3.74,12.57.65,18.92.82,4.55.12,9,.81,13.49,1.35q.52.48,1.08.93c5.49,4.4,16.14,5.62,19.63-2.53.15-.36.31-.72.46-1.07a16.43,16.43,0,0,0,1.37-7.87,12.45,12.45,0,0,0,1.29-10.75,12.3,12.3,0,0,0,3.64-5.92,44,44,0,0,0,1.21-5.44c5.23-5.58,10.12-11.29,11.44-18.88l1.9,0c11.13.12,14.56-11.8,10.3-19.22,1.06-.7,2.13-1.37,3.19-2.06,3.82-2.49,7.72-4.93,12.09-6.29,9.93-3.1,20.25-5.4,30.67-5.53a12.52,12.52,0,0,0,5.78-1.4,14.41,14.41,0,0,0,3,1.41c2.05.67,4.15,1.17,6.2,1.84a11.45,11.45,0,0,0,5.57.21c-.2,2.65-.47,5.28-.73,7.84-1.33,13.12-3.07,26.23-3.78,39.4-.77,14.26,1.13,27.56,4.16,41.44a94.7,94.7,0,0,1,2.32,18.52c.13,6.81-1.77,14-.68,20.69,2,12,15.24,20.23,26.45,22,11.56,1.86,24.65-.82,34.23-7.69,8.7-6.25,14.05-15.75,16.17-26.11a.24.24,0,0,0,0-.08Z" transform="translate(-41 -53)"/><path class="cls-3" d="M500.75,333.76a.61.61,0,0,0-.07.1h0Z" transform="translate(-41 -53)"/><path class="cls-3" d="M498.39,335.19c-.89.37-1.74.45,0,0Z" transform="translate(-41 -53)"/><path class="cls-3" d="M246.81,234.57a2.05,2.05,0,0,0,.3.69A.9.9,0,0,1,246.81,234.57Z" transform="translate(-41 -53)"/></g><g id="Capa_12_copia" data-name="Capa 12 copia"><g id="Capa_2_copia_2" data-name="Capa 2 copia 2"><circle class="cls-2" cx="257.5" cy="257.5" r="251"/></g><g id="Capa_5_copia" data-name="Capa 5 copia"><path class="cls-4" d="M138.15,196.39C138,250,138,305,138,359c-8,11-20,18-33,21-20,4-42-4-52.49-22.15" transform="translate(-41 -53)"/><path class="cls-5" d="M462.38,196.39C462,249,462,303,462,356a48.79,48.79,0,0,0,34,25,47.67,47.67,0,0,0,47.35-20.87" transform="translate(-41 -53)"/></g><g id="Capa_6_copia" data-name="Capa 6 copia"><path class="cls-6" d="M225.1,320" transform="translate(-41 -53)"/><path class="cls-7" d="M222.07,317.92A460.63,460.63,0,0,1,373,320.21" transform="translate(-41 -53)"/></g><g id="Capa_7_copia" data-name="Capa 7 copia"><path class="cls-4" d="M138.15,237.2a36.77,36.77,0,0,1,15.23-10.52c12.43-4.5,25.09.31,34.5,8.89,16.34,14.9,25.76,37.64,33.39,57.92,2.72,7.24,5.23,14.57,7.39,22" transform="translate(-41 -53)"/><path class="cls-4" d="M458.31,236.49c-13.91-13.38-34.4-15.74-49.17-2.06-9.78,9.06-16.58,21.91-22.5,33.61a378.55,378.55,0,0,0-20,48.46" transform="translate(-41 -53)"/></g><g id="Capa_8_copia" data-name="Capa 8 copia"><path class="cls-8" d="M298.43,207.62" transform="translate(-41 -53)"/><path class="cls-3" d="M299.77,209.36c6,0,12,0,17.94,0,8.42,0,11.8,5.4,7.53,12.95a90,90,0,0,1-15.79,20.42c-2.95,2.85-3.58,5.43-2.43,9.33a28.59,28.59,0,0,0,28.48,20.45,28.07,28.07,0,0,0,26.3-22.26,50.82,50.82,0,0,0,.86-5.9c.35-4.2,2.7-6.89,6.74-6.66,4.39.25,6.44,3.43,6.21,7.86-.71,13.95-6.7,25.12-18.27,32.91-17.72,12-40.58,8.83-54.5-7.55-3.07-3.62-4.08-3.33-7,.09-11.32,13.33-29,18.22-45.13,12.18s-25.29-17.89-27.39-35.09c-.59-4.83-.17-9.55,5.48-10.3,5.85-.78,6.91,3.88,7.6,8.64,2.6,17.93,16,28.27,32.9,25.68,11.12-1.7,20.75-11.11,23-22.09.56-2.8-.25-4.56-2.19-6.39-5.51-5.18-9.77-11.43-14.26-17.46a19.43,19.43,0,0,1-3.59-7c-1.47-6.18,1.23-9.72,7.6-9.76C286.48,209.32,293.13,209.36,299.77,209.36Z" transform="translate(-41 -53)"/></g><g id="Capa_10_copia" data-name="Capa 10 copia"><path class="cls-3" d="M220.89,189.2A20.52,20.52,0,1,1,201,168.34,21,21,0,0,1,220.89,189.2Z" transform="translate(-41 -53)"/><path class="cls-3" d="M419.22,188.66A20.32,20.32,0,1,1,399,168.34,20.29,20.29,0,0,1,419.22,188.66Z" transform="translate(-41 -53)"/></g></g><g id="gato_ojos" data-name="gato ojos"><path class="cls-9" d="M299.74,435.58H317c9.34,0,12.72,5.45,7.94,13.61-4.58,7.82-9.9,15.34-16.82,21.21-4.35,3.7-3.95,6.59-1.24,10.59,4,5.94,11.56,9.39,18.32,8.12,8.19-1.53,13.76-6.8,15.42-14.46.78-3.59,0-9.42,5.94-8,5.24,1.25,3.5,6.51,2.54,10.2-2.63,10.14-8.91,17.17-19.18,20-10.47,2.88-19.91.49-27.24-7.5-3-3.27-3.86-2.89-6.66.08-7.85,8.34-17.77,10.59-28.55,7-10.3-3.41-16.25-11.06-18.29-21.63-.67-3.49-1.17-7.89,3.7-8.44,4.47-.49,4.59,3.67,5.11,7,1.37,8.68,7.5,14.61,16.27,15.9,7.42,1.1,15.47-3.55,18.92-10.67,1.33-2.74,1.47-4.61-1.18-6.83-6.85-5.72-11.73-13.19-16.88-20.36a18.64,18.64,0,0,1-2.79-5.93c-1.64-6.06,1.29-9.85,7.51-9.91C286.47,435.54,293.1,435.58,299.74,435.58Z" transform="translate(-41 -53)"/><path class="cls-9" d="M220.89,405.38c-.11,10.86-9.54,20.27-20.42,20.37A20.81,20.81,0,0,1,179.86,405a20.52,20.52,0,0,1,41,.42Z" transform="translate(-41 -53)"/><path class="cls-9" d="M419.22,405.22a20.32,20.32,0,1,1-40.64-.12,20.32,20.32,0,1,1,40.64.12Z" transform="translate(-41 -53)"/><path class="cls-10" d="M224.41,451.33c.45,0,.89,0,1.33,0,3.36-.22,6.65.21,6.8,4.33.14,3.93-3.18,4.22-6.15,4.34a188.32,188.32,0,0,0-29.55,3.83A205.16,205.16,0,0,0,145,481.56c-2.93,1.47-6.39,3.8-8.52-.58s1.84-5.63,4.76-7.12C167.4,460.49,195.25,453.49,224.41,451.33Z" transform="translate(-41 -53)"/><path class="cls-10" d="M375.08,451.4c29.17,2.19,57,9.41,83.09,22.75,2.84,1.46,6,3.06,4,6.94s-5.16,2.13-8,.72a209.14,209.14,0,0,0-80-21.72c-3.3-.22-7.7.73-8.08-4.54C365.91,452.36,368.75,451.16,375.08,451.4Z" transform="translate(-41 -53)"/><path class="cls-11" d="M387,439.49c22.78,1,45.42,2.69,66.33,13.11,1,.49,2,1,2.95,1.5,2.83,1.48,3.86,3.8,2.24,6.56-1.51,2.57-4,2.38-6.35,1-9.95-5.55-20.8-8.36-31.89-10.48-14.42-2.76-29-3-43.58-2.72-3.08.05-6.75.61-7.08-3.85-.36-4.74,3.31-5.06,6.77-5.15S383.44,439.49,387,439.49Z" transform="translate(-41 -53)"/><path class="cls-11" d="M209.47,448.49c-21.78.47-43.17,2.81-62.86,13.21-2.7,1.43-5.29,1.5-6.65-1.62s.41-4.84,3.09-6.3c11.18-6.12,23.27-9.41,35.73-11.44a216.41,216.41,0,0,1,42.92-2.85c3.55.13,7.79-.08,7.41,5.15-.35,4.92-4.52,3.79-7.7,3.83C217.43,448.53,213.45,448.49,209.47,448.49Z" transform="translate(-41 -53)"/><path class="cls-11" d="M228.4,463.37c3.39-.25,5.29.82,5.67,3.39.52,3.46-1.94,4.5-4.76,5.13a177,177,0,0,0-39.18,13.87,211.58,211.58,0,0,0-23.53,13.51c-2.72,1.79-5.72,4.74-8.53.75s.61-5.91,3.47-7.8c19.68-13,40.63-23.1,63.79-28.22C226.61,463.71,227.91,463.47,228.4,463.37Z" transform="translate(-41 -53)"/><path class="cls-11" d="M441.51,497.29a4,4,0,0,1-1.94,3.94c-2.28,1.4-4.22.3-6.1-1A186,186,0,0,0,407.11,485,170.78,170.78,0,0,0,371,472.3c-3.07-.69-7.44-1-6.2-5.85,1.16-4.51,5.05-3.25,8.29-2.54,23.62,5.17,44.91,15.62,65,28.82C439.7,493.81,441.43,495,441.51,497.29Z" transform="translate(-41 -53)"/></g></svg>