<svg xmlns="http://www.w3.org/2000/svg" viewBox="0 0 257.72 59.47"><defs><style>.cls-1{fill:#2b2d2f;}</style></defs><g id="Capa_3_copia" data-name="Capa 3 copia"><path class="cls-1" d="M97.46,104.66a6,6,0,0,1-3.91-1.25,6.23,6.23,0,0,1-2.08-3.17A19.58,19.58,0,0,1,90.79,96c-.09-1.56-.12-3.15-.1-4.76s0-3.09,0-4.45a15,15,0,0,0-.41-3.26q-.34-1.23-1.29-1.23a2,2,0,0,0-1.91,1.12,7,7,0,0,0-.54,3,37,37,0,0,0,.24,4q.23,2.17.51,4.32a30.68,30.68,0,0,1,.27,3.77c0,2.27-.51,3.84-1.53,4.69a6.24,6.24,0,0,1-4.18,1.3,6.12,6.12,0,0,1-4.66-2.21,17.74,17.74,0,0,1-3.33-5.71,39.4,39.4,0,0,1-2-7.59,47.54,47.54,0,0,1-.68-7.75,37.92,37.92,0,0,1,1-8.7,25.74,25.74,0,0,1,3-7.55,16.12,16.12,0,0,1,5-5.3,12.5,12.5,0,0,1,7.07-2,9.39,9.39,0,0,1,5.3,1.4,10.72,10.72,0,0,1,3.37,3.5,14.37,14.37,0,0,1,1.73,4.28,15.12,15.12,0,0,1,1.7-4.28,10.5,10.5,0,0,1,3.33-3.5,9.3,9.3,0,0,1,5.24-1.4,12.91,12.91,0,0,1,8.81,3.2,20,20,0,0,1,5.54,8.81,40.5,40.5,0,0,1,1.9,13,38.2,38.2,0,0,1-.75,7.31,36,36,0,0,1-2.14,7.14,17.75,17.75,0,0,1-3.36,5.37,6.08,6.08,0,0,1-4.49,2.07,6.31,6.31,0,0,1-4.29-1.36q-1.56-1.35-1.56-4.76a30.68,30.68,0,0,1,.27-3.77c.18-1.43.36-2.87.55-4.32a33,33,0,0,0,.27-4,7.36,7.36,0,0,0-.51-3,1.89,1.89,0,0,0-1.87-1.12c-.64,0-1.08.41-1.33,1.23a13.31,13.31,0,0,0-.47,3.23c-.07,1.33-.11,2.81-.11,4.42s0,3.2-.1,4.79a18.62,18.62,0,0,1-.64,4.28,5.81,5.81,0,0,1-2,3.17A6.38,6.38,0,0,1,97.46,104.66Z" transform="translate(-71.14 -45.27)"/><path class="cls-1" d="M143.49,104.73a17,17,0,0,1-8.8-2.07,15.61,15.61,0,0,1-5.92-5.85,17.11,17.11,0,0,1-2.28-8.19,15,15,0,0,1,2.11-8.2,15.78,15.78,0,0,1,6.05-5.68,18.27,18.27,0,0,1,8.84-2.1,16.86,16.86,0,0,1,8.67,2,16.09,16.09,0,0,1,8.4,13.94,15,15,0,0,1-2.11,8,15.73,15.73,0,0,1-6,5.78A19.16,19.16,0,0,1,143.49,104.73Zm.21-9.93a4.27,4.27,0,0,0,3.19-1.42A4.7,4.7,0,0,0,148.25,90a4.53,4.53,0,0,0-1.36-3.29,4.35,4.35,0,0,0-6.39,0A4.53,4.53,0,0,0,139.14,90a4.7,4.7,0,0,0,1.36,3.34A4.28,4.28,0,0,0,143.7,94.8Z" transform="translate(-71.14 -45.27)"/><path class="cls-1" d="M189.8,104.66a4.46,4.46,0,0,1-3.84-1.53,7.54,7.54,0,0,1-1.33-3.87c-.13-1.57-.2-3.14-.2-4.73a14,14,0,0,0-1-5.81,3.64,3.64,0,0,0-3.61-2.21,3.57,3.57,0,0,0-3.4,2.21,13.3,13.3,0,0,0-1.08,5.81c0,1.59-.06,3.15-.17,4.69a7.55,7.55,0,0,1-1.26,3.85c-.73,1-2,1.53-3.95,1.53a4.51,4.51,0,0,1-3.5-1.57A10.53,10.53,0,0,1,164.3,99a29.64,29.64,0,0,1-1.05-5.44,52.67,52.67,0,0,1-.31-5.64q0-2.72.27-5.58a28.17,28.17,0,0,1,1-5.3A9.94,9.94,0,0,1,166.27,73a4.59,4.59,0,0,1,3.54-1.49q3.87,0,4.83,3.53a7.83,7.83,0,0,1,2.61-1.66,10.33,10.33,0,0,1,4.12-.78,13.35,13.35,0,0,1,8.57,2.65,15.06,15.06,0,0,1,4.86,7.31,33.49,33.49,0,0,1,1.46,10.78,25.41,25.41,0,0,1-.58,5.67,8.77,8.77,0,0,1-2,4.08A5,5,0,0,1,189.8,104.66Z" transform="translate(-71.14 -45.27)"/><path class="cls-1" d="M208,71.68a7.51,7.51,0,0,1-5.65-2.41,8.67,8.67,0,0,1-1.26-10,8.44,8.44,0,0,1,2.86-3A7.48,7.48,0,0,1,208,55.16a7.33,7.33,0,0,1,4,1.12,8.62,8.62,0,0,1,2.89,3,7.94,7.94,0,0,1,1.09,4.15,8.12,8.12,0,0,1-1.09,4.18,8.45,8.45,0,0,1-2.89,3A7.33,7.33,0,0,1,208,71.68Zm0,33a5,5,0,0,1-4.05-1.56,9.4,9.4,0,0,1-1.77-4.79,72.8,72.8,0,0,1-.51-8.33,65.52,65.52,0,0,1,.44-8.37,9,9,0,0,1,1.81-4.79A5.16,5.16,0,0,1,208,75.29a5.05,5.05,0,0,1,4,1.53,9.24,9.24,0,0,1,1.8,4.79,59.56,59.56,0,0,1,.48,8.37,54.55,54.55,0,0,1-.41,8.33A9.39,9.39,0,0,1,212,103.1,5.13,5.13,0,0,1,208,104.66Z" transform="translate(-71.14 -45.27)"/><path class="cls-1" d="M229.24,104.73a6.53,6.53,0,0,1-5-2,13.25,13.25,0,0,1-2.93-5.38A36,36,0,0,1,220,90q-.35-4-.34-8a32.78,32.78,0,0,1,1.26-9,24.83,24.83,0,0,1,3.88-8,19,19,0,0,1,6.63-5.68,20.12,20.12,0,0,1,9.52-2.11A21.85,21.85,0,0,1,251,59.51a18.3,18.3,0,0,1,7.25,6.6A18.63,18.63,0,0,1,261,76.31a23,23,0,0,1-1.64,9.11A17,17,0,0,1,255,91.64a18.22,18.22,0,0,1-6.12,3.57A19.37,19.37,0,0,1,242,96.27a18.34,18.34,0,0,1-6.46-1.33,17.6,17.6,0,0,1,.38,3.33,8,8,0,0,1-.55,3.16,4.83,4.83,0,0,1-2,2.38A7.63,7.63,0,0,1,229.24,104.73Zm12.38-19a5.83,5.83,0,0,0,4.25-1.8,5.73,5.73,0,0,0,1.8-4.18,6.06,6.06,0,0,0-12.11,0,5.7,5.7,0,0,0,1.81,4.18A5.8,5.8,0,0,0,241.62,85.69Z" transform="translate(-71.14 -45.27)"/><path class="cls-1" d="M279.08,104.66a19.13,19.13,0,0,1-8.94-2A14.73,14.73,0,0,1,262,89.09,16.29,16.29,0,0,1,270.07,75a16.62,16.62,0,0,1,8.67-2.25,15.73,15.73,0,0,1,7.82,1.84,13.35,13.35,0,0,1,5,4.66,11.14,11.14,0,0,1,1.74,6,8.66,8.66,0,0,1-1.43,5.13,9.16,9.16,0,0,1-3.71,3.06,16.29,16.29,0,0,1-4.86,1.39,21.35,21.35,0,0,1-5,.11,19.12,19.12,0,0,1-4-.78,6.27,6.27,0,0,0,3.1,2.68,9.48,9.48,0,0,0,3.94.61,24.54,24.54,0,0,0,3.78-.44,5.06,5.06,0,0,1,3.46.21A2.39,2.39,0,0,1,290,99.29a3.7,3.7,0,0,1-.85,2.45,6.85,6.85,0,0,1-3.3,2.07A21,21,0,0,1,279.08,104.66Zm-4.55-18.9a3.66,3.66,0,0,0,2,1.53,6.16,6.16,0,0,0,2.62.31,4.84,4.84,0,0,0,2.24-.75,2,2,0,0,0,.92-1.7,2.9,2.9,0,0,0-.92-2.08,3.94,3.94,0,0,0-2.89-.91,3.61,3.61,0,0,0-2.92,1.19A3.68,3.68,0,0,0,274.53,85.76Z" transform="translate(-71.14 -45.27)"/><path class="cls-1" d="M316.89,104.66a13.64,13.64,0,0,1-9.21-3.74,10.76,10.76,0,0,1-2.82-4.42,18.15,18.15,0,0,1-.89-4.21c-.18-1.68-.3-3.47-.37-5.37s-.1-3.77-.1-5.58a34.07,34.07,0,0,1-5.07-.48,9.09,9.09,0,0,1-3.94-1.53A3.81,3.81,0,0,1,293,76a5.17,5.17,0,0,1,1.42-4,7.54,7.54,0,0,1,3.85-1.77,34.76,34.76,0,0,1,5.27-.51,41.09,41.09,0,0,1,.37-4.32,17.69,17.69,0,0,1,1.05-4.11,8,8,0,0,1,2.11-3.1,5.21,5.21,0,0,1,3.54-1.19,4.9,4.9,0,0,1,4.25,1.84,9.92,9.92,0,0,1,1.66,4.76,45,45,0,0,1,.28,6.12,44.39,44.39,0,0,1,6.25.27,9.08,9.08,0,0,1,4.29,1.5,4.26,4.26,0,0,1,1.56,3.67,4.51,4.51,0,0,1-1.77,3.88,10.41,10.41,0,0,1-4.62,1.73,44.3,44.3,0,0,1-6.05.51c0,.86,0,1.76,0,2.69s0,1.87,0,2.82a19.61,19.61,0,0,0,.54,5.51A2.54,2.54,0,0,0,318,93.92a4.47,4.47,0,0,0,1.81.37,13.06,13.06,0,0,1,2.65.44,3.86,3.86,0,0,1,2.45,1.67,6,6,0,0,1,.88,3.37,4,4,0,0,1-2.41,3.6A13.87,13.87,0,0,1,316.89,104.66Z" transform="translate(-71.14 -45.27)"/><path class="cls-1" d="M203.61,54.6c1.91,0,3.47-2.09,3.47-4.67s-1.56-4.66-3.47-4.66-3.48,2.09-3.48,4.66S201.69,54.6,203.61,54.6Z" transform="translate(-71.14 -45.27)"/><path class="cls-1" d="M212,54.6c1.91,0,3.47-2.09,3.47-4.67s-1.56-4.66-3.47-4.66-3.48,2.09-3.48,4.66S210.08,54.6,212,54.6Z" transform="translate(-71.14 -45.27)"/><path class="cls-1" d="M217.71,53.2c-1.54,0-2.74,1.6-2.74,3.63s1.2,3.63,2.74,3.63,2.74-1.6,2.74-3.63S219.24,53.2,217.71,53.2Z" transform="translate(-71.14 -45.27)"/><path class="cls-1" d="M200.92,56.83c0-2-1.2-3.63-2.73-3.63s-2.74,1.6-2.74,3.63,1.2,3.63,2.74,3.63S200.92,58.86,200.92,56.83Z" transform="translate(-71.14 -45.27)"/></g></svg>