<svg id="Capa_1" data-name="Capa 1" xmlns="http://www.w3.org/2000/svg" viewBox="0 0 854.18 967.9"><defs><style>.cls-1{fill:#fff;}.cls-2,.cls-4,.cls-5,.cls-6{fill:none;stroke:#000;}.cls-2,.cls-4,.cls-6{stroke-miterlimit:10;}.cls-2{stroke-width:21.56px;}.cls-3{fill:#489dba;}.cls-4,.cls-5{stroke-linecap:round;stroke-width:23.22px;}.cls-5{stroke-linejoin:round;}.cls-6{stroke-width:19.9px;}.cls-7{fill:#fefefe;}.cls-8{fill:#fdfdfd;}.cls-9{fill:#fcfcfc;}.cls-10{isolation:isolate;}.cls-11{fill:#2b2d2f;}</style></defs><g id="Capa_1-2" data-name="Capa 1"><g id="Capa_2_copia_3" data-name="Capa 2 copia 3"><circle class="cls-1" cx="427.09" cy="540.81" r="416.31"/><circle class="cls-2" cx="427.09" cy="540.81" r="416.31"/></g><g id="Capa_2_copia" data-name="Capa 2 copia"><path class="cls-3" d="M909,607.83a18.1,18.1,0,0,0,3.32-.82C884.08,809.49,710.24,965.35,500,965.35,276.77,965.35,94.59,789.64,84.18,569a155.43,155.43,0,0,0,5.75,15.76c1.48,3.46,2.89,6.71,4.15,10.25a165.9,165.9,0,0,0,2.17,20c2.12,12.46,8,24.39,18.69,31.65,7.9,5.29,17.68,8,27.07,9.4l.68.1c5.46,9.44,18.83,12.28,28,6.89a20,20,0,0,0,6.5-6.07c.8-.09,1.66-.2,2.42-.35a129.17,129.17,0,0,0,15.53-4.7c12.14-4,23.22-9.5,31.51-19.52,7-8.44,8.38-20.36.5-28.79,3.47-17.76,3.75-35.66,5.09-53.62a126.13,126.13,0,0,0-4.78-47.82c7.25-3.22,11.42-10.68,12.48-19.06,2.25-17.68-.47-32.8-6.44-49.47-2.17-6.07-4.26-12.14-6.63-18.16a18.58,18.58,0,0,0,3.93-.6,18.94,18.94,0,0,0,12.57-10.33c5.95-3.17,11.78-4.85,17.38-3.32,5.94,1.66,11.78,3.57,17.6,5.52,3.48,1.18,6.93,2.37,10.42,3.54a44.92,44.92,0,0,1,6.35,2.38c8.09,5,13.27,15.1,19.77,22.69a219,219,0,0,0,24.73,23.9c1.19,1,3.86,3.57,4.29,4a33.09,33.09,0,0,0,1.66,3.11c.27.82,1.28,3.56,1.56,4.46.9,2.68,1.76,5.39,2.62,8.09a140.74,140.74,0,0,0,6.85,18.44c2,4.13,5.67,8.91,6.82,12.58,1.56,5,1.44,10.53,2.9,15.62a46.19,46.19,0,0,0,10.25,18.63c8,8.64,19.54,11.86,30.92,12.65,10.21.73,20.63-1.13,30.83-1.66a247.66,247.66,0,0,1,29.09-.4c3.58.77,7.17,1.58,10.77,2.29a160,160,0,0,0,32.12,2.26,18.91,18.91,0,0,0,17.29-9.85l.74-.6c10.45,1.23,20.85,1.08,31.38,1.36,7.55.2,14.93,1.34,22.38,2.24.57.53,1.17,1,1.79,1.54,9.1,7.3,26.77,9.32,32.56-4.19.24-.6.51-1.2.76-1.78a27.26,27.26,0,0,0,2.27-13,20.65,20.65,0,0,0,2.14-17.83,20.44,20.44,0,0,0,6-9.82,74.92,74.92,0,0,0,2-9c8.67-9.26,16.78-18.73,19-31.32h3.15c18.46.2,24.15-19.57,17.08-31.88,1.76-1.16,3.54-2.27,5.3-3.41,6.33-4.13,12.8-8.18,20-10.44,16.47-5.14,33.58-8.95,50.87-9.17a20.75,20.75,0,0,0,9.58-2.32,24.24,24.24,0,0,0,5,2.34c3.4,1.11,6.88,1.94,10.28,3.05a18.9,18.9,0,0,0,9.24.35c-.33,4.39-.78,8.76-1.21,13-2.21,21.76-5.09,43.51-6.27,65.35-1.28,23.65,1.87,45.71,6.9,68.73a157.36,157.36,0,0,1,3.85,30.72c.21,11.3-2.94,23.22-1.13,34.32,3.32,19.9,25.28,33.55,43.87,36.49,19.17,3.08,40.88-1.36,56.77-12.76,14.43-10.37,23.31-26.12,26.82-43.31a.29.29,0,0,0,0-.13Z" transform="translate(-72.91 -8.14)"/><path class="cls-3" d="M835.45,587.53l-.12.17h0Z" transform="translate(-72.91 -8.14)"/><path class="cls-3" d="M414.27,423a3.15,3.15,0,0,0,.5,1.14A1.46,1.46,0,0,1,414.27,423Z" transform="translate(-72.91 -8.14)"/></g><g id="Capa_12_copia" data-name="Capa 12 copia"><g id="Capa_2_copia_2" data-name="Capa 2 copia 2"><circle class="cls-2" cx="427.09" cy="540.81" r="416.31"/></g><g id="Capa_5_copia" data-name="Capa 5 copia"><path class="cls-4" d="M234.05,359.69c-.25,88.92-.25,180.14-.25,269.71-13.27,18.24-33.18,29.85-54.74,34.83-33.17,6.63-69.66-6.64-87.06-36.74" transform="translate(-72.91 -8.14)"/><path class="cls-5" d="M771.81,359.69c-.63,87.26-.63,176.82-.63,264.73a80.89,80.89,0,0,0,56.39,41.46,79.07,79.07,0,0,0,78.54-34.61" transform="translate(-72.91 -8.14)"/></g><g id="Capa_6_copia" data-name="Capa 6 copia"><path class="cls-6" d="M373.23,561.26a764,764,0,0,1,250.33,3.8" transform="translate(-72.91 -8.14)"/></g><g id="Capa_7_copia" data-name="Capa 7 copia"><path class="cls-4" d="M234.05,427.38a60.94,60.94,0,0,1,25.26-17.45c20.61-7.46,41.61.52,57.22,14.75,27.1,24.71,42.72,62.43,55.38,96.06,4.51,12,8.67,24.17,12.25,36.49" transform="translate(-72.91 -8.14)"/><path class="cls-4" d="M765.06,426.2C742,404,708,400.1,683.51,422.79c-16.22,15-27.5,36.34-37.32,55.74A626.87,626.87,0,0,0,613,558.91" transform="translate(-72.91 -8.14)"/></g><g id="Capa_8_copia" data-name="Capa 8 copia"><path d="M502.11,380.77h29.75c14,0,19.57,9,12.49,21.47a149.35,149.35,0,0,1-26.19,33.87c-4.89,4.73-5.94,9-4,15.48a47.45,47.45,0,0,0,47.24,33.92A46.57,46.57,0,0,0,605,448.59a82.75,82.75,0,0,0,1.42-9.79c.59-7,4.48-11.43,11.18-11.05,7.29.42,10.69,5.69,10.3,13-1.17,23.14-11.11,41.66-30.3,54.58-29.39,19.91-67.3,14.65-90.39-12.52-5.09-6-6.77-5.52-11.61.15-18.78,22.11-48.1,30.22-74.85,20.2S378.8,473.49,375.32,445c-1-8-.28-15.84,9.09-17.08,9.7-1.29,11.46,6.43,12.6,14.33,4.31,29.74,26.54,46.89,54.57,42.59C470,482,486,466.42,489.72,448.2c.93-4.64-.42-7.56-3.64-10.59-9.13-8.6-16.2-19-23.65-29A32.37,32.37,0,0,1,456.48,397c-2.44-10.25,2-16.13,12.6-16.19C480.06,380.7,491.09,380.77,502.11,380.77Z" transform="translate(-72.91 -8.14)"/></g><g id="Capa_10_copia" data-name="Capa 10 copia"><path d="M371.28,347.77a34,34,0,1,1-33.45-34.61h.46A34.83,34.83,0,0,1,371.28,347.77Z" transform="translate(-72.91 -8.14)"/><path d="M700.22,346.47a33.7,33.7,0,1,1-33.7-33.71h.17A33.66,33.66,0,0,1,700.22,346.47Z" transform="translate(-72.91 -8.14)"/></g></g><g id="gato_ojos" data-name="gato ojos"><path class="cls-7" d="M502.06,755.61h28.62c15.5,0,21.1,9,13.17,22.57-7.59,13-16.42,25.44-27.89,35.18-7.22,6.14-6.56,10.93-2.06,17.56,6.63,9.85,19.17,15.58,30.38,13.47,13.59-2.54,22.83-11.28,25.58-24,1.29-6,0-15.63,9.85-13.27,8.69,2.07,5.81,10.8,4.21,16.92-4.36,16.81-14.77,28.47-31.81,33.17-17.36,4.77-33,.81-45.18-12.44-5-5.42-6.4-4.79-11,.13-13,13.83-29.48,17.57-47.36,11.61-17.08-5.65-26.95-18.34-30.33-35.87-1.11-5.79-1.94-13.09,6.14-14,7.41-.81,7.61,6.08,8.47,11.61,2.27,14.39,12.44,24.23,27,26.37,12.3,1.82,25.65-5.89,31.38-17.7,2.2-4.54,2.43-7.64-2-11.33-11.36-9.48-19.46-21.87-28-33.76A31,31,0,0,1,456.6,772c-2.72-10,2.14-16.34,12.46-16.44C480.05,755.54,491,755.61,502.06,755.61Z" transform="translate(-72.91 -8.14)"/><path class="cls-7" d="M371.28,706.32c-.19,18-15.83,33.62-33.87,33.79a34.51,34.51,0,0,1-34.18-34.42,34,34,0,1,1,68,.7Z" transform="translate(-72.91 -8.14)"/><path class="cls-7" d="M700.22,706.06a33.7,33.7,0,1,1-33.6-33.81,33.7,33.7,0,0,1,33.6,33.81Z" transform="translate(-72.91 -8.14)"/><path class="cls-8" d="M377.12,782.14h2.2c5.57-.36,11,.35,11.28,7.19.23,6.51-5.27,7-10.2,7.19a312,312,0,0,0-49,6.36,340.31,340.31,0,0,0-86,29.4c-4.86,2.44-10.6,6.31-14.13-1s3-9.34,7.89-11.81C282.56,797.34,328.75,785.73,377.12,782.14Z" transform="translate(-72.91 -8.14)"/><path class="cls-8" d="M627,782.65c48.39,3.63,94.54,15.61,137.82,37.73,4.71,2.42,9.95,5.08,6.63,11.51s-8.56,3.54-13.27,1.2a347,347,0,0,0-132.68-36c-5.48-.36-12.78,1.21-13.41-7.53C611.81,784.24,616.52,782.25,627,782.65Z" transform="translate(-72.91 -8.14)"/><path class="cls-9" d="M646.79,762.9c37.78,1.65,75.33,4.46,110,21.74,1.66.81,3.32,1.66,4.89,2.49,4.7,2.45,6.4,6.3,3.72,10.88-2.51,4.26-6.64,4-10.53,1.66-16.51-9.21-34.5-13.87-52.9-17.39-23.91-4.57-48.1-5-72.28-4.51-5.11.09-11.19,1-11.74-6.38-.6-7.86,5.49-8.39,11.23-8.54S640.88,762.9,646.79,762.9Z" transform="translate(-72.91 -8.14)"/><path class="cls-9" d="M352.34,777.82c-36.13.78-71.61,4.66-104.26,21.91-4.48,2.37-8.78,2.49-11-2.68s.68-8,5.12-10.45c18.55-10.15,38.6-15.61,59.26-19a358.8,358.8,0,0,1,71.19-4.72c5.89.21,12.92-.14,12.29,8.54-.58,8.16-7.5,6.28-12.77,6.35C365.54,777.89,358.94,777.82,352.34,777.82Z" transform="translate(-72.91 -8.14)"/><path class="cls-9" d="M383.73,802.5c5.63-.41,8.78,1.36,9.41,5.63.86,5.73-3.22,7.46-7.9,8.5a292.83,292.83,0,0,0-65,23,348.9,348.9,0,0,0-39,22.41c-4.51,3-9.48,7.86-14.15,1.24s1-9.8,5.76-12.94c32.64-21.56,67.39-38.31,105.8-46.8C380.76,803.07,382.92,802.67,383.73,802.5Z" transform="translate(-72.91 -8.14)"/><path class="cls-9" d="M737.19,858.76A6.64,6.64,0,0,1,734,865.3c-3.78,2.32-7,.49-10.12-1.66a308.45,308.45,0,0,0-43.72-25.26,283.17,283.17,0,0,0-59.89-21.07c-5.09-1.14-12.34-1.65-10.29-9.7,1.93-7.48,8.38-5.39,13.75-4.21,39.18,8.57,74.49,25.91,107.81,47.8C734.19,853,737.06,855,737.19,858.76Z" transform="translate(-72.91 -8.14)"/></g></g><g id="Capa_2" data-name="Capa 2"><g class="cls-10"><path class="cls-11" d="M327.78,154.88a10.9,10.9,0,0,1-7.48.75,11.34,11.34,0,0,1-5.78-3.78,35.42,35.42,0,0,1-4.25-6.62q-1.95-3.84-3.66-7.9c-1.14-2.72-2.24-5.2-3.32-7.44a26,26,0,0,0-3.07-5.17c-1-1.21-2-1.57-3.06-1.11a3.54,3.54,0,0,0-2.37,3.27,12.66,12.66,0,0,0,1.28,5.41,66.66,66.66,0,0,0,3.36,6.61c1.33,2.32,2.67,4.6,4,6.86a54.67,54.67,0,0,1,3.22,6.13q2.49,5.7.87,9a11.52,11.52,0,0,1-6.06,5.23,11.21,11.21,0,0,1-9.42-.3,32.55,32.55,0,0,1-9.77-7.13,73,73,0,0,1-8.91-11.24,86.48,86.48,0,0,1-6.81-12.49,70,70,0,0,1-4.72-15.31,47.91,47.91,0,0,1-.51-14.84,29.83,29.83,0,0,1,4.5-12.54,23,23,0,0,1,10.41-8.48,17.3,17.3,0,0,1,9.91-1.55,19.81,19.81,0,0,1,8.2,3.41,26.33,26.33,0,0,1,6,5.91,27.11,27.11,0,0,1-.29-8.43,19.15,19.15,0,0,1,3-8.3,17,17,0,0,1,7.76-6.17A23.57,23.57,0,0,1,328,67.55q8.44,2.7,15.73,10.7a73.84,73.84,0,0,1,12.72,20.43,70.36,70.36,0,0,1,4.1,12.8A65.51,65.51,0,0,1,362.15,125a32.24,32.24,0,0,1-1.71,11.47,11.05,11.05,0,0,1-6,6.76c-3,1.32-5.76,1.61-8.17.85s-4.45-3-6.11-6.83a56.68,56.68,0,0,1-2.3-6.52c-.74-2.53-1.49-5.07-2.25-7.64a59.2,59.2,0,0,0-2.51-7,13.46,13.46,0,0,0-3-4.64,3.43,3.43,0,0,0-3.95-.51c-1.07.47-1.51,1.47-1.33,3a25,25,0,0,0,1.57,5.76c.86,2.29,1.88,4.79,3.06,7.48s2.29,5.4,3.34,8.11A34.17,34.17,0,0,1,334.8,143a10.5,10.5,0,0,1-1.11,6.8A11.51,11.51,0,0,1,327.78,154.88Z" transform="translate(-72.91 -8.14)"/></g><g class="cls-10"><path class="cls-11" d="M403.75,129.94a31.16,31.16,0,0,1-16.54-.11,28.5,28.5,0,0,1-12.93-8,31.35,31.35,0,0,1-7.4-13.68,27.33,27.33,0,0,1,.42-15.46,28.7,28.7,0,0,1,8.47-12.59,33.26,33.26,0,0,1,14.9-7.36,31.07,31.07,0,0,1,16.29.1A30,30,0,0,1,420,80.56a29.56,29.56,0,0,1,7.6,13.69,27.33,27.33,0,0,1-.48,15.23,28.81,28.81,0,0,1-8.43,12.77A35.12,35.12,0,0,1,403.75,129.94Zm-3.68-17.78a7.81,7.81,0,0,0,5.11-3.85,8.53,8.53,0,0,0,1.07-6.49,8.37,8.37,0,0,0-3.77-5.33,8,8,0,0,0-11.39,2.61,8.32,8.32,0,0,0-1.08,6.43,8.53,8.53,0,0,0,3.78,5.39A7.84,7.84,0,0,0,400.07,112.16Z" transform="translate(-72.91 -8.14)"/></g><g class="cls-10"><path class="cls-11" d="M484.4,118.87c-3.3.26-5.71-.48-7.22-2.24a13.72,13.72,0,0,1-3-6.87q-.72-4.24-1-8.59a25.74,25.74,0,0,0-2.7-10.45,6.65,6.65,0,0,0-6.88-3.51,6.55,6.55,0,0,0-5.89,4.52,24.13,24.13,0,0,0-1.14,10.75c.22,2.9.34,5.75.36,8.58a13.67,13.67,0,0,1-1.74,7.18q-1.77,3-7,3.36a8.2,8.2,0,0,1-6.61-2.35,19.22,19.22,0,0,1-4.49-7.13,54.8,54.8,0,0,1-2.7-9.77A99.22,99.22,0,0,1,433,92.11q-.39-5-.3-10.2a52,52,0,0,1,1-9.81A18.12,18.12,0,0,1,437,64.61a8.33,8.33,0,0,1,6.23-3.24q7.07-.55,9.31,5.76a14.21,14.21,0,0,1,4.53-3.42,18.75,18.75,0,0,1,7.39-2q9.54-.75,16,3.6a27.65,27.65,0,0,1,9.91,12.63,61.39,61.39,0,0,1,4.21,19.44,46.88,46.88,0,0,1-.24,10.43,16.1,16.1,0,0,1-3,7.72A9.16,9.16,0,0,1,484.4,118.87Z" transform="translate(-72.91 -8.14)"/></g><g class="cls-10"><path class="cls-11" d="M517,58.87a13.72,13.72,0,0,1-10.19-4.72,15,15,0,0,1-3.91-10.88A15,15,0,0,1,505,35.74a15.12,15.12,0,0,1,5.38-5.25,13.77,13.77,0,0,1,7.46-1.83,13.51,13.51,0,0,1,7.21,2.27,15.67,15.67,0,0,1,5.13,5.57A14.69,14.69,0,0,1,532,44.14a15,15,0,0,1-2.22,7.59A15.56,15.56,0,0,1,524.29,57,13.5,13.5,0,0,1,517,58.87Zm-1.81,60.31q-5-.15-7.32-3.08c-1.56-2-2.55-4.91-3-8.87A128.1,128.1,0,0,1,504.39,92a118.07,118.07,0,0,1,1.27-15.26q1-6,3.55-8.67c1.72-1.82,4.23-2.68,7.55-2.58s5.75,1.11,7.31,3,2.57,4.87,3,8.87a110.59,110.59,0,0,1,.42,15.32,99.63,99.63,0,0,1-1.21,15.21q-1,5.88-3.62,8.66C521,118.4,518.46,119.28,515.15,119.18Z" transform="translate(-72.91 -8.14)"/></g><g class="cls-10"><path class="cls-11" d="M551.22,121.57a11.94,11.94,0,0,1-8.39-5.09,24.3,24.3,0,0,1-3.73-10.58,66.2,66.2,0,0,1-.3-13.75q.56-7.37,1.71-14.5a60.29,60.29,0,0,1,4.92-16,45.65,45.65,0,0,1,9.36-13.33A35.26,35.26,0,0,1,568.45,40a37.14,37.14,0,0,1,17.85-1,40.18,40.18,0,0,1,17.61,7.14,33.67,33.67,0,0,1,11.18,14.06q3.66,8.55,1.94,19.26a42.44,42.44,0,0,1-5.62,16,31.28,31.28,0,0,1-9.76,10,33.32,33.32,0,0,1-12.13,4.67,35.07,35.07,0,0,1-12.68-.09,33.66,33.66,0,0,1-11.3-4.29,33.34,33.34,0,0,1-.3,6.14,14.85,14.85,0,0,1-1.91,5.57,9,9,0,0,1-4.39,3.71Q556,122.34,551.22,121.57Zm28-30.85a10.67,10.67,0,0,0,8.22-2,10.56,10.56,0,0,0,4.49-7A11.1,11.1,0,0,0,570,78.12a10.53,10.53,0,0,0,2,8.09A10.65,10.65,0,0,0,579.2,90.72Z" transform="translate(-72.91 -8.14)"/></g><g class="cls-10"><path class="cls-11" d="M636.64,141.16a34.72,34.72,0,0,1-14.39-8.59,27.29,27.29,0,0,1-7.26-13,27.68,27.68,0,0,1,.87-15.22,29.51,29.51,0,0,1,8.37-13,29.81,29.81,0,0,1,13.69-7,30.47,30.47,0,0,1,16.34,1,28.66,28.66,0,0,1,12.54,7.65,24.69,24.69,0,0,1,6,10.94,20.42,20.42,0,0,1-.38,11.33,15.84,15.84,0,0,1-5.4,8.1,16.85,16.85,0,0,1-8.19,3.21,30.61,30.61,0,0,1-9.24-.35,39.41,39.41,0,0,1-8.68-2.65,34.46,34.46,0,0,1-6.53-3.65,11.46,11.46,0,0,0,3.85,6.43,17.5,17.5,0,0,0,6.5,3.31,48.22,48.22,0,0,0,6.81,1.39,9.39,9.39,0,0,1,5.91,2.33,4.39,4.39,0,0,1,1.24,4.59,6.8,6.8,0,0,1-2.87,3.77q-2.29,1.6-6.91,1.72C645.86,143.64,641.76,142.83,636.64,141.16Zm2.86-35.45a6.63,6.63,0,0,0,2.55,3.79,11.11,11.11,0,0,0,4.37,2,8.9,8.9,0,0,0,4.33,0,3.54,3.54,0,0,0,2.56-2.43,5.26,5.26,0,0,0-.41-4.13q-1.06-2.11-4.5-3.24a6.68,6.68,0,0,0-5.76.4A6.77,6.77,0,0,0,639.5,105.71Z" transform="translate(-72.91 -8.14)"/></g><g class="cls-10"><path class="cls-11" d="M697.46,166.82a25.07,25.07,0,0,1-12.09-13.59,19.72,19.72,0,0,1-1.06-9.53,33.9,33.9,0,0,1,2-7.63q1.59-4.33,3.73-9.11t4.34-9.23a65.52,65.52,0,0,1-7.92-4.87,16.71,16.71,0,0,1-5.23-5.7,7,7,0,0,1,.15-6.65q2.14-4.35,5.56-5.37a13.67,13.67,0,0,1,7.73.21,62.54,62.54,0,0,1,9.06,3.42,74.14,74.14,0,0,1,4.1-6.78,33.19,33.19,0,0,1,5.05-5.89,14.35,14.35,0,0,1,6-3.37,9.46,9.46,0,0,1,6.76.9q4.8,2.37,5.49,6.45a18.3,18.3,0,0,1-1.11,9.16,81.73,81.73,0,0,1-4.51,10.25,81.64,81.64,0,0,1,10,5.51,16.51,16.51,0,0,1,5.82,5.91c1.09,2.11,1,4.54-.4,7.29s-3.41,4.47-6,4.93a19,19,0,0,1-9-.9,82.8,82.8,0,0,1-10.34-4q-1,2.12-2.23,4.38c-.79,1.5-1.56,3-2.33,4.6q-3.13,6.34-3.56,9.47a4.48,4.48,0,0,0,.57,3.47,8.21,8.21,0,0,0,2.65,2.07,23.33,23.33,0,0,1,4,2.87,7,7,0,0,1,2.66,4.71A10.89,10.89,0,0,1,716,166c-1.24,2.53-3.54,3.85-6.87,4S701.92,169,697.46,166.82Z" transform="translate(-72.91 -8.14)"/></g></g><g id="Capa_3" data-name="Capa 3"><path class="cls-11" d="M509.82,26.8c3.83,0,6.95-4.19,6.95-9.33s-3.12-9.33-6.95-9.33-6.95,4.18-6.95,9.33S506,26.8,509.82,26.8Z" transform="translate(-72.91 -8.14)"/><path class="cls-11" d="M524.6,26.8c3.84,0,6.95-4.19,6.95-9.33s-3.11-9.33-6.95-9.33-7,4.18-7,9.33S520.77,26.8,524.6,26.8Z" transform="translate(-72.91 -8.14)"/><path class="cls-11" d="M536,23c-3.07,0-5.48,3.18-5.48,7.25S533,37.52,536,37.52s5.48-3.19,5.48-7.26S539.09,23,536,23Z" transform="translate(-72.91 -8.14)"/><path class="cls-11" d="M505.46,30.26c0-4.07-2.41-7.25-5.48-7.25s-5.48,3.18-5.48,7.25,2.41,7.26,5.48,7.26S505.46,34.33,505.46,30.26Z" transform="translate(-72.91 -8.14)"/></g></svg>