<?xml version="1.0" encoding="utf-8"?>
<!-- Generator: Adobe Illustrator 24.1.3, SVG Export Plug-In . SVG Version: 6.00 Build 0)  -->
<svg version="1.1" id="Capa_1" xmlns="http://www.w3.org/2000/svg" xmlns:xlink="http://www.w3.org/1999/xlink" x="0px" y="0px"
	 viewBox="0 0 400 130" style="enable-background:new 0 0 400 130;" xml:space="preserve">
<style type="text/css">
	.st0{fill:#FFFFFF;}
	.st1{fill:none;stroke:#000000;stroke-width:3.11;stroke-miterlimit:10;}
	.st2{fill:#489DBA;}
	.st3{fill:none;stroke:#000000;stroke-width:3.35;stroke-linecap:round;stroke-miterlimit:10;}
	.st4{fill:none;stroke:#000000;stroke-width:3.35;stroke-linecap:round;stroke-linejoin:round;}
	.st5{fill:none;stroke:#000000;stroke-width:2.87;stroke-miterlimit:10;}
	.st6{fill:none;stroke:#73A9AD;stroke-width:2.39;stroke-linejoin:round;}
	.st7{fill:#FEFEFE;}
	.st8{fill:#FDFDFD;}
	.st9{fill:#FCFCFC;}
	.st10{enable-background:new    ;}
	.st11{fill:#2B2D2F;}
</style>
<g id="Capa_4">
	<g id="Capa_2_copia_3">
		<circle class="st0" cx="65.4" cy="64.7" r="60"/>
		<circle class="st1" cx="65.4" cy="64.7" r="60"/>
	</g>
	<g id="Capa_2_copia">
		<path class="st2" d="M124.5,73.3c0.2,0,0.3-0.1,0.5-0.1c-4.4,32.8-34.6,55.9-67.5,51.5c-28.9-3.9-50.8-27.9-52-57
			C5.7,68.5,6,69.2,6.3,70c0.2,0.5,0.4,1,0.6,1.5c0,1,0.1,1.9,0.3,2.9c0.2,1.8,1.2,3.5,2.7,4.6c1.2,0.7,2.5,1.2,3.9,1.3h0.1
			c0.9,1.3,2.6,1.8,4,1c0.4-0.2,0.7-0.5,0.9-0.9h0.4c0.8-0.2,1.5-0.4,2.2-0.7c1.8-0.5,3.3-1.5,4.5-2.8c1.1-1.2,1.1-3,0.1-4.2
			c0.4-2.6,0.6-5.1,0.7-7.7c0.2-2.3,0-4.7-0.7-6.9c1-0.5,1.7-1.6,1.8-2.7c0.3-2.4,0-4.9-0.9-7.1c-0.3-0.9-0.6-1.8-1-2.6
			c0.2,0,0.4,0,0.6-0.1c0.8-0.2,1.5-0.8,1.9-1.5c0.7-0.5,1.6-0.6,2.5-0.5c0.9,0.2,1.7,0.5,2.5,0.8l1.5,0.5c0.3,0.1,0.6,0.2,0.9,0.3
			c1.2,0.7,1.9,2.2,2.8,3.3c1.1,1.2,2.3,2.4,3.6,3.5c0.2,0.2,0.6,0.5,0.6,0.6c0.1,0.2,0.2,0.3,0.2,0.5c0,0.1,0.2,0.5,0.2,0.6
			c0.1,0.4,0.3,0.8,0.4,1.2c0.3,0.9,0.6,1.8,1,2.7c0.3,0.6,0.8,1.3,1,1.8c0.2,0.7,0.2,1.5,0.4,2.3c0.7,2.7,3.1,4.6,5.9,4.5
			c1.5,0,3-0.1,4.4-0.2s2.8-0.1,4.2-0.1c0.5,0.1,1,0.2,1.5,0.3c1.5,0.3,3.1,0.4,4.6,0.3c1,0,2-0.5,2.5-1.4l0.1-0.1
			c1.5,0.2,3,0.2,4.5,0.2c1.1,0.1,2.2,0.2,3.2,0.3l0.3,0.2c1.3,1,3.9,1.3,4.7-0.6c0-0.1,0.1-0.2,0.1-0.3c0.3-0.6,0.4-1.3,0.3-1.9
			c0.5-0.8,0.6-1.7,0.3-2.6c0.4-0.4,0.7-0.9,0.9-1.4c0.1-0.4,0.2-0.9,0.3-1.3c1.3-1.2,2.3-2.8,2.7-4.5h0.4c2.7,0,3.5-2.8,2.5-4.6
			l0.8-0.5c0.9-0.6,1.9-1.1,2.9-1.5c2.4-0.8,4.8-1.2,7.3-1.3c0.5,0,1-0.1,1.4-0.3c0.2,0.1,0.5,0.3,0.7,0.3c0.5,0.2,1,0.3,1.5,0.4
			c0.4,0.1,0.9,0.1,1.3,0c0,0.6-0.1,1.3-0.2,1.9c-0.3,3.1-0.7,6.3-0.9,9.4c-0.1,3.3,0.2,6.7,1,9.9c0.3,1.5,0.5,2.9,0.6,4.4
			c0,1.6-0.4,3.3-0.2,4.9c0.5,2.9,3.6,4.8,6.3,5.3c2.9,0.5,5.8-0.2,8.2-1.8C122.6,78.1,123.9,75.9,124.5,73.3L124.5,73.3L124.5,73.3
			z"/>
		<path class="st2" d="M113.8,70.3L113.8,70.3L113.8,70.3z"/>
		<path class="st2" d="M113.2,70.7"/>
		<path class="st2" d="M53.1,46.6c0,0.1,0,0.1,0.1,0.2C53.1,46.7,53.1,46.7,53.1,46.6z"/>
	</g>
	<g id="Capa_12_copia">
		<g id="Capa_2_copia_2">
			<circle class="st1" cx="65.4" cy="64.7" r="60"/>
		</g>
		<g id="Capa_5_copia">
			<path class="st3" d="M27.1,37.5c0,12.8,0,26,0,38.9c-1.9,2.6-4.7,4.3-7.9,5c-4.9,1.1-9.9-1-12.6-5.3"/>
			<path class="st4" d="M104.6,37.5c-0.1,12.6-0.1,25.5-0.1,38.2c1.7,3.1,4.7,5.3,8.1,6c4.4,0.7,8.9-1.3,11.3-5"/>
		</g>
		<g id="Capa_6_copia">
			<path class="st3" d="M47.9,67"/>
			<path class="st5" d="M47.2,66.5c12-1.8,24.2-1.6,36.1,0.6"/>
		</g>
		<g id="Capa_7_copia">
			<path class="st3" d="M27.1,47.2c1-1.1,2.2-2,3.6-2.5c3-1.1,6,0.1,8.2,2.1c3.9,3.6,6.2,9,8,13.8c0.7,1.7,1.3,3.5,1.8,5.3"/>
			<path class="st3" d="M103.7,47.1c-3.3-3.2-8.2-3.8-11.8-0.5c-2.3,2.2-4,5.2-5.4,8c-1.9,3.7-3.5,7.6-4.8,11.6"/>
		</g>
		<g id="Capa_8_copia">
			<path class="st6" d="M65.4,40.2"/>
			<path d="M65.8,40.6h4.3c2,0,2.8,1.3,1.8,3.1s-2.3,3.4-3.8,4.9c-0.7,0.5-0.9,1.4-0.6,2.2c0.9,3,3.7,5,6.8,4.9
				c3.1-0.1,5.7-2.3,6.3-5.3c0.1-0.5,0.2-0.9,0.2-1.4c0.1-1,0.6-1.6,1.6-1.6s1.5,0.8,1.4,1.8c-0.1,3.2-1.7,6.1-4.4,7.9
				c-4.1,2.9-9.8,2.1-13-1.8c-0.7-0.9-1-0.8-1.7,0c-3.5,4.2-9.7,4.7-13.9,1.2c-2-1.7-3.2-4-3.5-6.6c-0.1-1.2,0-2.3,1.3-2.5
				s1.7,0.9,1.8,2.1c0.6,4.3,3.9,6.8,7.9,6.1c2.7-0.5,4.9-2.6,5.5-5.3c0.1-0.6-0.1-1.2-0.5-1.5c-1.3-1.3-2.4-2.7-3.4-4.2
				c-0.4-0.5-0.7-1.1-0.9-1.7c-0.3-1.5,0.3-2.3,1.8-2.3S64.2,40.6,65.8,40.6z"/>
		</g>
		<g id="Capa_10_copia">
			<path d="M46.9,35.8c-0.1,2.7-2.3,4.9-5,4.8c-2.7-0.1-4.9-2.3-4.8-5c0.1-2.7,2.3-4.9,5-4.8h0.1C44.8,30.9,46.9,33.1,46.9,35.8z"/>
			<path d="M94.3,35.7c0,2.7-2.2,4.9-4.9,4.9s-4.9-2.2-4.9-4.9s2.2-4.9,4.9-4.9l0,0C92.1,30.8,94.3,33,94.3,35.7L94.3,35.7z"/>
		</g>
	</g>
	<g id="gato_ojos">
		<path class="st7" d="M65.8,94.6h4.1c2.2,0,3,1.3,1.9,3.3c-1,1.9-2.4,3.6-4,5.1c-1,0.9-0.9,1.6-0.3,2.5c1,1.4,2.7,2.2,4.4,1.9
			c1.8-0.3,3.3-1.6,3.7-3.5c0.2-0.8,0-2.3,1.4-1.9c1.3,0.3,0.8,1.6,0.6,2.4c-0.5,2.3-2.3,4.2-4.6,4.8c-2.3,0.8-4.9,0.1-6.5-1.8
			c-0.7-0.8-0.9-0.7-1.6,0c-1.7,1.9-4.4,2.6-6.8,1.7c-2.3-0.7-4-2.7-4.4-5.2c-0.2-0.8-0.3-1.9,0.9-2s1.1,0.9,1.2,1.7
			c0.3,2,1.9,3.6,3.9,3.8c1.9,0.2,3.7-0.8,4.5-2.6c0.4-0.5,0.3-1.2-0.2-1.6c0,0,0,0-0.1,0c-1.5-1.4-2.9-3.1-4-4.9
			c-0.3-0.4-0.5-0.9-0.7-1.4c-0.4-0.8,0-1.9,0.8-2.2c0.3-0.1,0.6-0.2,1-0.1C61,94.6,65.8,94.6,65.8,94.6z"/>
		<path class="st7" d="M46.9,87.4c-0.1,2.7-2.2,4.8-4.9,4.9c-2.7,0-4.9-2.3-4.9-5s2.2-4.9,5-4.8C44.7,82.5,46.9,84.7,46.9,87.4
			L46.9,87.4z"/>
		<path class="st7" d="M94.3,87.4c0,2.7-2.2,4.9-4.9,4.8c-2.7,0-4.9-2.2-4.8-4.9c0-2.7,2.2-4.8,4.9-4.9
			C92.1,82.5,94.3,84.7,94.3,87.4L94.3,87.4L94.3,87.4z"/>
		<path class="st8" d="M47.7,98.5H48c0.8-0.1,1.6,0,1.6,1s-0.8,1-1.5,1c-2.4,0.1-4.7,0.4-7.1,0.9c-4.3,0.8-8.5,2.3-12.4,4.2
			c-0.7,0.3-1.5,0.9-2-0.1s0.4-1.3,1.1-1.7C34.1,100.7,40.8,98.9,47.7,98.5z"/>
		<path class="st8" d="M83.8,98.4c6.9,0.5,13.7,2.3,19.9,5.4c0.7,0.3,1.4,0.7,1,1.7s-1.2,0.5-1.9,0.2c-6-3-12.5-4.8-19.1-5.2
			c-0.8,0-1.8,0.2-1.9-1.1C81.6,98.7,82.2,98.4,83.8,98.4z"/>
		<path class="st9" d="M86.6,95.6c5.4,0.2,10.8,0.6,15.8,3.1l0.7,0.4c0.5,0.1,0.8,0.7,0.7,1.2c0,0.1-0.1,0.2-0.2,0.3
			c-0.4,0.6-1,0.6-1.5,0.2c-2.4-1.2-5-2.1-7.6-2.5c-3.4-0.6-6.9-0.8-10.4-0.7c-0.7,0-1.6,0.2-1.7-0.9s0.8-1.2,1.6-1.2
			S85.8,95.6,86.6,95.6z"/>
		<path class="st9" d="M44.2,97.7c-5.2,0.1-10.3,0.7-15,3.2c-0.6,0.3-1.3,0.4-1.6-0.4s0.1-1.2,0.7-1.5c2.7-1.4,5.6-2.3,8.5-2.7
			c3.4-0.6,6.8-0.8,10.3-0.7c0.8,0,1.9,0,1.8,1.2s-1.1,0.9-1.8,0.9H44.2z"/>
		<path class="st9" d="M48.7,101.3c0.8-0.1,1.3,0.2,1.4,0.8c0.1,0.8-0.5,1.1-1.1,1.2c-3.2,0.7-6.4,1.8-9.4,3.3c-1.9,1-3.8,2-5.6,3.2
			c-0.6,0.4-1.4,1.1-2,0.2c-0.6-0.9,0.1-1.4,0.8-1.9c4.6-3.2,9.8-5.5,15.2-6.8L48.7,101.3z"/>
		<path class="st9" d="M99.6,109.4c0,0.4-0.1,0.7-0.5,0.9c-0.5,0.3-1,0.1-1.5-0.2c-2-1.4-4.1-2.6-6.3-3.6c-2.8-1.3-5.7-2.3-8.6-3
			c-0.7-0.2-1.8-0.2-1.5-1.4s1.2-0.8,2-0.6c5.6,1.3,10.8,3.6,15.5,6.9C99.2,108.6,99.6,108.9,99.6,109.4z"/>
	</g>
</g>
<g id="Capa_2_1_">
	<g class="st10">
		<path class="st11" d="M166.6,89.8c-1.6,0-2.9-0.4-3.9-1.3s-1.7-1.9-2.1-3.2c-0.4-1.3-0.6-2.7-0.7-4.3c-0.1-1.6-0.1-3.2-0.1-4.8
			c0-1.6,0-3.1,0-4.5s-0.2-2.4-0.4-3.3c-0.2-0.8-0.7-1.2-1.3-1.2c-0.9,0-1.5,0.4-1.9,1.1s-0.5,1.7-0.5,3c0,1.2,0.1,2.6,0.2,4
			c0.2,1.5,0.3,2.9,0.5,4.3s0.3,2.7,0.3,3.8c0,2.3-0.5,3.8-1.5,4.7s-2.4,1.3-4.2,1.3s-3.3-0.7-4.7-2.2c-1.3-1.5-2.4-3.4-3.3-5.7
			c-0.9-2.3-1.6-4.9-2-7.6c-0.5-2.7-0.7-5.3-0.7-7.8c0-3,0.3-5.9,1-8.7c0.7-2.8,1.7-5.3,3-7.5c1.3-2.2,3-4,5-5.3c2-1.3,4.4-2,7.1-2
			c2.1,0,3.9,0.5,5.3,1.4c1.4,0.9,2.5,2.1,3.4,3.5c0.8,1.4,1.4,2.8,1.7,4.3c0.3-1.5,0.9-2.9,1.7-4.3s1.9-2.6,3.3-3.5
			c1.4-0.9,3.2-1.4,5.2-1.4c3.4,0,6.4,1.1,8.8,3.2c2.4,2.1,4.3,5.1,5.5,8.8c1.3,3.7,1.9,8.1,1.9,13c0,2.3-0.2,4.8-0.7,7.3
			c-0.5,2.6-1.2,4.9-2.1,7.1c-0.9,2.2-2.1,4-3.4,5.4c-1.3,1.4-2.8,2.1-4.5,2.1c-1.8,0-3.2-0.5-4.3-1.4c-1-0.9-1.6-2.5-1.6-4.8
			c0-1.1,0.1-2.3,0.3-3.8c0.2-1.4,0.4-2.9,0.5-4.3c0.2-1.5,0.3-2.8,0.3-4s-0.2-2.2-0.5-3c-0.3-0.7-1-1.1-1.9-1.1
			c-0.6,0-1.1,0.4-1.3,1.2c-0.2,0.8-0.4,1.9-0.5,3.2c-0.1,1.3-0.1,2.8-0.1,4.4s0,3.2-0.1,4.8c-0.1,1.6-0.3,3-0.6,4.3s-1,2.3-2,3.2
			C169.7,89.3,168.3,89.8,166.6,89.8z"/>
		<path class="st11" d="M211.6,89.8c-3.4,0-6.3-0.6-8.8-2.1s-4.5-3.4-5.9-5.8c-1.4-2.5-2.2-5.2-2.3-8.2c0-3.1,0.7-5.8,2.1-8.2
			c1.5-2.4,3.5-4.3,6.1-5.7s5.5-2.1,8.8-2.1s6.2,0.6,8.7,2s4.5,3.3,6,5.7s2.3,5.1,2.4,8.2c0,2.9-0.7,5.6-2.1,8.1
			c-1.5,2.4-3.5,4.4-6.1,5.8S215,89.6,211.6,89.8z M211.8,79.8c1.2,0,2.3-0.5,3.2-1.4c0.9-1,1.4-2.1,1.4-3.3c0-1.3-0.5-2.4-1.4-3.3
			s-2-1.4-3.2-1.4s-2.3,0.5-3.2,1.4s-1.4,2-1.4,3.3s0.5,2.4,1.4,3.3C209.6,79.3,210.6,79.8,211.8,79.8z"/>
	</g>
	<g class="st10">
		<path class="st11" d="M259,89.8c-1.8,0-3.1-0.5-3.8-1.5s-1.2-2.3-1.3-3.9s-0.2-3.1-0.2-4.7c0-2.4-0.3-4.3-1-5.8s-1.9-2.2-3.6-2.2
			c-1.5,0-2.7,0.7-3.4,2.2s-1.1,3.4-1.1,5.8c0,1.6-0.1,3.2-0.2,4.7c-0.1,1.5-0.5,2.8-1.3,3.8c-0.7,1-2,1.5-3.9,1.5
			c-1.4,0-2.6-0.5-3.5-1.6c-0.9-1-1.6-2.4-2.1-4.1s-0.9-3.5-1.1-5.4c-0.2-1.9-0.3-3.8-0.3-5.6c0-1.8,0.1-3.7,0.3-5.6s0.5-3.7,1-5.3
			s1.2-2.9,2.1-3.9c0.9-1,2.1-1.5,3.5-1.5c2.6,0,4.2,1.2,4.8,3.5c0.5-0.6,1.4-1.1,2.6-1.7c1.2-0.5,2.6-0.8,4.1-0.8
			c3.5,0,6.3,0.9,8.6,2.7c2.2,1.8,3.8,4.2,4.9,7.3c1,3.1,1.5,6.7,1.5,10.8c0,2.1-0.2,4-0.6,5.7s-1,3.1-2,4.1
			C262,89.1,260.6,89.8,259,89.8z"/>
		<path class="st11" d="M276.8,56.8c-2.2,0-4.1-0.8-5.6-2.4s-2.3-3.6-2.3-5.9c0-1.5,0.4-2.9,1.1-4.1c0.7-1.2,1.7-2.2,2.9-3
			c1.2-0.7,2.5-1.1,4-1.1s2.8,0.4,4,1.1s2.2,1.7,2.9,3c0.7,1.2,1.1,2.6,1.1,4.1s-0.4,2.9-1.1,4.2c-0.7,1.2-1.7,2.2-2.9,3
			C279.7,56.4,278.2,56.8,276.8,56.8z M276.8,89.8c-1.8,0-3.2-0.5-4-1.6c-0.9-1-1.5-2.6-1.8-4.8c-0.3-2.2-0.5-4.9-0.5-8.3
			s0.1-6.2,0.4-8.4c0.3-2.2,0.9-3.8,1.8-4.8s2.3-1.5,4.1-1.5c1.8,0,3.2,0.5,4,1.5c0.9,1,1.5,2.6,1.8,4.8s0.5,5,0.5,8.4
			s-0.1,6.2-0.4,8.3c-0.3,2.2-0.9,3.8-1.8,4.8C280,89.1,278.6,89.8,276.8,89.8z"/>
	</g>
	<g class="st10">
		<path class="st11" d="M298.4,89.8c-2,0-3.7-0.7-5-2s-2.2-3.1-2.9-5.4c-0.7-2.2-1.1-4.7-1.4-7.4c-0.2-2.7-0.3-5.3-0.3-8
			c0-3.1,0.4-6.1,1.3-9c0.8-2.9,2.1-5.6,3.9-8s4-4.3,6.6-5.7c2.7-1.4,5.8-2.1,9.5-2.1s7.1,0.8,10.1,2.3s5.4,3.7,7.2,6.6
			c1.8,2.9,2.7,6.3,2.7,10.2c0,3.5-0.5,6.6-1.6,9.1s-2.5,4.6-4.4,6.2c-1.8,1.6-3.9,2.8-6.1,3.6c-2.2,0.8-4.5,1.1-6.8,1.1
			c-2.3-0.1-4.5-0.5-6.5-1.3c0.2,1.1,0.4,2.2,0.4,3.3c0,1.1-0.2,2.2-0.5,3.2c-0.4,1-1.1,1.8-2,2.4C301.5,89.4,300.2,89.8,298.4,89.8
			z M310.8,70.8c1.6,0,3-0.6,4.3-1.8c1.2-1.2,1.8-2.6,1.8-4.2s-0.6-3-1.8-4.2c-1.2-1.2-2.6-1.8-4.3-1.8s-3,0.6-4.3,1.8
			c-1.2,1.2-1.8,2.6-1.8,4.2c0,1.6,0.6,3,1.8,4.2S309.2,70.8,310.8,70.8z"/>
	</g>
	<g class="st10">
		<path class="st11" d="M348.3,89.8c-3.4,0-6.4-0.7-8.9-2c-2.6-1.3-4.6-3.2-6-5.5s-2.1-5-2.1-8.1c0-2.9,0.7-5.7,2.1-8.2
			s3.4-4.5,5.9-6s5.4-2.2,8.7-2.2c3,0,5.6,0.6,7.8,1.8c2.2,1.2,3.8,2.8,5,4.7c1.2,1.9,1.7,3.9,1.7,6s-0.5,3.8-1.4,5.1
			c-1,1.3-2.2,2.4-3.7,3.1s-3.1,1.2-4.9,1.4c-1.7,0.2-3.4,0.3-5,0.1c-1.6-0.2-2.9-0.4-4-0.8c0.8,1.3,1.8,2.2,3.1,2.7
			c1.2,0.5,2.6,0.7,3.9,0.6c1.4-0.1,2.6-0.2,3.8-0.4c1.4-0.3,2.6-0.2,3.5,0.2c0.9,0.5,1.4,1.2,1.4,2.2c0,0.8-0.2,1.6-0.8,2.4
			c-0.6,0.8-1.7,1.5-3.3,2.1C353.5,89.4,351.2,89.8,348.3,89.8z M343.7,70.8c0.5,0.7,1.1,1.2,2,1.5s1.7,0.4,2.6,0.3s1.6-0.3,2.2-0.7
			c0.6-0.4,0.9-1,0.9-1.7c0-0.8-0.3-1.5-0.9-2.1s-1.6-0.9-2.9-0.9s-2.2,0.4-2.9,1.2C344,69.1,343.7,69.9,343.7,70.8z"/>
	</g>
	<g class="st10">
		<path class="st11" d="M386.1,89.8c-1.6,0-3.2-0.3-4.8-1c-1.6-0.6-3.1-1.6-4.4-2.8c-1.3-1.2-2.2-2.7-2.8-4.4
			c-0.4-1.1-0.7-2.5-0.9-4.2c-0.2-1.7-0.3-3.5-0.4-5.4s-0.1-3.8-0.1-5.6c-1.8,0-3.5-0.2-5.1-0.5s-2.9-0.8-3.9-1.5s-1.5-1.8-1.5-3.3
			c0-1.8,0.5-3.1,1.4-4c1-0.9,2.2-1.5,3.8-1.8c1.6-0.3,3.4-0.5,5.3-0.5c0-1.4,0.2-2.8,0.4-4.3c0.2-1.5,0.6-2.8,1.1-4.1
			c0.5-1.3,1.2-2.3,2.1-3.1c0.9-0.8,2.1-1.2,3.5-1.2c1.9,0,3.4,0.6,4.3,1.8c0.9,1.2,1.4,2.8,1.7,4.8c0.2,1.9,0.3,4,0.3,6.1
			c2.4,0,4.4,0,6.3,0.3c1.8,0.2,3.2,0.7,4.3,1.5c1,0.8,1.6,2,1.6,3.7c0,1.7-0.6,3-1.8,3.9c-1.2,0.9-2.7,1.4-4.6,1.7
			c-1.9,0.3-3.9,0.5-6.1,0.5c0,0.9,0,1.8,0,2.7c0,0.9,0,1.9,0,2.8c0,2.6,0.2,4.4,0.5,5.5c0.3,0.8,0.6,1.3,1.1,1.6
			c0.5,0.2,1.1,0.4,1.8,0.4c0.7,0,1.6,0.2,2.7,0.4c1,0.2,1.9,0.8,2.4,1.7c0.6,0.9,0.9,2,0.9,3.4c0,1.5-0.8,2.7-2.4,3.6
			C391,89.3,388.8,89.8,386.1,89.8z"/>
	</g>
</g>
<g id="Capa_3_copia">
	<path class="st11" d="M272.5,39.3c1.9,0,3.5-2.1,3.5-4.7s-1.6-4.7-3.5-4.7S269,32,269,34.6S270.6,39.3,272.5,39.3z"/>
	<path class="st11" d="M280.9,39.3c1.9,0,3.5-2.1,3.5-4.7s-1.6-4.7-3.5-4.7s-3.5,2.1-3.5,4.7S278.9,39.3,280.9,39.3z"/>
	<path class="st11" d="M286.6,37.9c-1.5,0-2.7,1.6-2.7,3.6s1.2,3.6,2.7,3.6s2.7-1.6,2.7-3.6S288.1,37.9,286.6,37.9z"/>
	<path class="st11" d="M269.8,41.5c0-2-1.2-3.6-2.7-3.6s-2.7,1.6-2.7,3.6s1.2,3.6,2.7,3.6C268.6,45.2,269.8,43.6,269.8,41.5z"/>
</g>
</svg>
